<svg xmlns="http://www.w3.org/2000/svg" viewBox="0 0 220.57 137.85"><defs><style>.cls-1{fill:#0077a6;}.cls-2{fill:#fff;}</style></defs><g id="Layer_2" data-name="Layer 2"><g id="Capa_1" data-name="Capa 1"><rect class="cls-1" width="220.57" height="137.85" rx="7.35"/><path class="cls-2" d="M68.43,65.72V63.51l-1.05,2.21H58.25L57.1,63.35v2.37H40l-2-4.78H34.59l-2.13,4.78H23.61V51.31l6.48-14.68H42.52l1.74,4.16V36.66H59.45l3.34,7,3.27-7h48a8.08,8.08,0,0,1,4.16,1.13V36.63h12.09v1.59a9.82,9.82,0,0,1,5.38-1.59H157l1.88,4.22V36.63h13.66L175,40.85V36.63h13.06V65.75H174.63l-3.15-5.08v5H154.8l-2.34-5.2h-3.27l-2.2,5.2h-10.1a13.05,13.05,0,0,1-6.58-2.07v2.07h-20.1v-6.8c0-1-.76-.91-.76-.91h-.73v7.71Z"/><path class="cls-2" d="M58.41,72h26.4l3.81,4.32L92.52,72h20.3a9.33,9.33,0,0,1,3.72,1V72h18.08a9.22,9.22,0,0,1,4.22,1.15V72h23.24v1.06A7.85,7.85,0,0,1,166,72H181.1v1.06A9.26,9.26,0,0,1,185,72h11.89V99.46a6.55,6.55,0,0,1-4.8,1.77H176.44v-.87a8,8,0,0,1-3.76.87H131.05V94.14c0-.7-.31-.83-.93-.83h-.57v7.92h-13V93.36a8.7,8.7,0,0,1-3.85.78H108v7.09H92l-3.65-4.45-3.9,4.45h-26Z"/><polygon class="cls-1" points="141.63 76.4 158.2 76.4 158.2 80.85 146.7 80.85 146.7 84.72 157.88 84.72 157.88 88.64 146.7 88.64 146.7 92.71 158.2 92.71 158.2 97.05 141.63 97.05 141.63 76.4"/><path class="cls-1" d="M190.22,84.45c6.22.32,6.74,3.43,6.74,6.75,0,3.86-3.18,5.94-6.49,5.94H179.82V92.71h8.29c1.41,0,3.51,0,3.51-2,0-.94-.37-1.54-1.87-1.7-.66-.09-3.13-.23-3.5-.24-5.63-.15-6.94-3-6.94-6.35a5.69,5.69,0,0,1,6-6H196v4.42h-7.79c-1.78,0-3.69-.2-3.69,1.8,0,1.26.95,1.52,2.14,1.64C187.08,84.31,189.84,84.45,190.22,84.45Z"/><path class="cls-1" d="M171.13,84.45c6.23.32,6.75,3.43,6.75,6.75,0,3.86-3.18,5.94-6.5,5.94H160.74V92.71H169c1.41,0,3.51,0,3.51-2,0-.94-.37-1.54-1.87-1.7-.67-.09-3.13-.23-3.5-.24-5.63-.15-6.94-3-6.94-6.35a5.69,5.69,0,0,1,6-6h10.64v4.42h-7.78c-1.78,0-3.69-.2-3.69,1.8,0,1.26.95,1.52,2.14,1.64C168,84.31,170.76,84.45,171.13,84.45Z"/><path class="cls-1" d="M111,76.45H93.24l-5.81,6.4L81.82,76.4h-20V97.05H81.17l6.08-6.82,5.94,6.87h9.73v-7h6.82c2.63,0,7.42-.09,7.42-7.33C117.16,77.6,113.52,76.45,111,76.45ZM78.52,92.71H66.83V88.64H78V84.72H66.83V80.85l12.33,0,4.94,5.62Zm19.38,2.4-7.28-8.62,7.28-8.06Zm11.42-9.28H103v-5h6.33c2.13,0,2.8,1.36,2.8,2.37C112.14,84.64,111.4,85.83,109.32,85.83Z"/><path class="cls-1" d="M135.52,87.69A5.63,5.63,0,0,0,139,82c0-4.42-3.59-5.53-6.08-5.53H119.76V97.1h5.07V89.81h6.63c1.75,0,2.44,1.75,2.49,3.5l.13,3.79H139l-.19-4.25C138.83,89.53,137.92,88,135.52,87.69Zm-4.38-2.13h-6.31V80.88h6.33c2.12,0,2.79,1.36,2.79,2.37C134,84.63,133.21,85.56,131.14,85.56Z"/><rect class="cls-1" x="121.79" y="40.76" width="5.07" height="20.67"/><polygon class="cls-1" points="80.29 40.79 96.86 40.79 96.86 45.23 85.36 45.23 85.36 49.1 96.54 49.1 96.54 53.02 85.36 53.02 85.36 57.1 96.86 57.1 96.86 61.43 80.29 61.43 80.29 40.79"/><path class="cls-1" d="M115.63,52a5.63,5.63,0,0,0,3.5-5.72c0-4.42-3.59-5.52-6.08-5.52H99.87V61.43h5.07V54.15h6.63c1.75,0,2.45,1.75,2.49,3.5l.14,3.78h4.93L119,57.19C119,53.87,118,52.31,115.63,52Zm-4.38-2.14h-6.31V45.21h6.33c2.12,0,2.79,1.36,2.79,2.38C114.06,49,113.32,49.89,111.25,49.89Z"/><path class="cls-1" d="M68.6,40.79,62.38,54.63l-6.2-13.84H48.24V60.67L39.39,40.79H32.68l-9,20.64H29l2-4.61H41.09l2,4.61H53.3V46.11l6.78,15.32h4.61l6.93-15.07V61.43h5.07V40.79ZM32.89,52.37l3-7.22,3.15,7.22Z"/><path class="cls-1" d="M179.16,40.78V55.07l-8.55-14.29h-7.49V60.16l-8.63-19.37h-6.71l-7,16s-3,0-3.25-.07c-1.22-.26-3.13-1.12-3.15-4.76v-1.5c0-4.84,2.62-5.19,6-5.19h3.13V40.78H136.9c-2.3,0-7.32,1.75-7.48,10.23-.12,5.72,2.37,10.43,8,10.43h6.69l2-4.61h10.12l2,4.61h10V46.32l9.12,15.12h6.91V40.78ZM148,52.38l3-7.22,3.18,7.22Z"/></g></g></svg>