<svg xmlns="http://www.w3.org/2000/svg" viewBox="0 0 225.44 140.9"><defs><style>.cls-1{fill:#084d95;}.cls-2{fill:#fff;}</style></defs><g id="Layer_2" data-name="Layer 2"><g id="Capa_1" data-name="Capa 1"><path class="cls-1" d="M7.52,0H217.93a7.51,7.51,0,0,1,7.51,7.51V133.39a7.51,7.51,0,0,1-7.51,7.51H7.52A7.52,7.52,0,0,1,0,133.38V7.52A7.52,7.52,0,0,1,7.52,0Z"/><path class="cls-2" d="M118.11,76.85c12.74.06,24.37-10.38,24.37-23.1,0-13.9-11.63-23.51-24.37-23.5h-11c-12.89,0-23.5,9.6-23.5,23.5a23.34,23.34,0,0,0,23.5,23.1Z"/><path class="cls-1" d="M112,66.13V40.89a13.51,13.51,0,0,1,0,25.24M93.68,53.51a13.54,13.54,0,0,1,8.68-12.62V66.13a13.55,13.55,0,0,1-8.68-12.62M107.2,32.17a21.34,21.34,0,1,0,21.33,21.34A21.35,21.35,0,0,0,107.2,32.17"/><path class="cls-2" d="M59.81,92.75c0,1.9,1.36,2.12,2.57,2.12,5.32,0,7.07-4,7.07-7.68,0-4.61-3-7.94-7.71-7.94-1,0-1.48.08-1.93.1ZM57.4,81.2c0-2.22-1.16-2.07-2.26-2.1v-.64c1,.05,1.94.05,2.91.05s2.43-.05,4.26-.05c6.38,0,9.85,4.26,9.85,8.63,0,2.44-1.43,8.57-10.15,8.57-1.25,0-2.41,0-3.57,0s-2.2,0-3.3,0V95c1.47-.15,2.19-.2,2.26-1.87Z"/><path class="cls-2" d="M75.66,80.61a1.21,1.21,0,1,1,0-2.42,1.2,1.2,0,0,1,1.2,1.19,1.23,1.23,0,0,1-1.2,1.23M73,95h.47c.69,0,1.18,0,1.18-.81V87.53c0-1.08-.36-1.23-1.28-1.72v-.4c1.16-.34,2.54-.81,2.64-.88a.86.86,0,0,1,.44-.13c.12,0,.17.15.17.35v9.46c0,.81.54.81,1.24.81h.42v.64c-.84,0-1.71,0-2.59,0s-1.78,0-2.69,0Z"/><path class="cls-2" d="M80.64,87.68c0-.91-.28-1.16-1.43-1.63v-.47a31.05,31.05,0,0,0,3.25-1.18c.07,0,.14,0,.14.25v1.6c1.41-1,2.62-1.85,4.27-1.85,2.1,0,2.83,1.53,2.83,3.45v6.36c0,.81.55.81,1.23.81h.45v.64c-.87,0-1.73,0-2.61,0s-1.77,0-2.66,0V95h.44c.69,0,1.18,0,1.18-.81V87.83c0-1.41-.86-2.1-2.26-2.1a6.55,6.55,0,0,0-2.87,1.19v7.29c0,.81.55.81,1.24.81h.44v.64c-.86,0-1.72,0-2.61,0s-1.77,0-2.66,0V95h.45c.68,0,1.18,0,1.18-.81Z"/><path class="cls-2" d="M97.61,88.07c.62,0,.69-.32.69-.61a2.09,2.09,0,0,0-2.14-2.27c-1.5,0-2.54,1.11-2.83,2.88Zm-4.36.79a6.12,6.12,0,0,0,0,1.43c.15,2.34,1.66,4.26,3.62,4.26a4.73,4.73,0,0,0,3.33-1.65l.34.35C99.41,94.75,98,96,96,96c-3.92,0-4.71-3.79-4.71-5.37,0-4.83,3.25-6.26,5-6.26a3.91,3.91,0,0,1,4.16,3.87,3.17,3.17,0,0,1,0,.44l-.23.15Z"/><path class="cls-2" d="M101,95h.66c.69,0,1.19,0,1.19-.81V87.29c0-.77-.91-.92-1.29-1.12v-.36c1.8-.77,2.79-1.41,3-1.41s.22.08.22.32v2.22h0c.62-1,1.65-2.54,3.16-2.54a1.35,1.35,0,0,1,1.4,1.31A1.19,1.19,0,0,1,108.23,87c-.76,0-.76-.59-1.63-.59a2.08,2.08,0,0,0-1.79,2v5.79c0,.81.49.81,1.18.81h1.38v.64c-1.36,0-2.39,0-3.45,0s-2,0-2.93,0Z"/><path class="cls-2" d="M110.47,92.24c.32,1.62,1.31,3,3.11,3a1.74,1.74,0,0,0,2-1.75c0-2.9-5.37-2-5.37-5.94,0-1.38,1.11-3.15,3.82-3.15a6.39,6.39,0,0,1,2.81.72l.17,2.51h-.57a2.52,2.52,0,0,0-2.68-2.44,1.73,1.73,0,0,0-1.92,1.63c0,2.88,5.71,2,5.71,5.86,0,1.63-1.3,3.35-4.23,3.35a6.4,6.4,0,0,1-3-.84L110,92.36Z"/><path class="cls-2" d="M139.79,82.92h-.61c-.47-2.88-2.52-4-5.28-4s-7,1.9-7,7.81c0,5,3.55,8.55,7.35,8.55A5,5,0,0,0,139.25,91l.57.15-.57,3.59A13.71,13.71,0,0,1,133.8,96c-5.76,0-9.4-3.72-9.4-9.26,0-5,4.5-8.68,9.33-8.68a18,18,0,0,1,5.82,1.31Z"/><path class="cls-2" d="M140.68,95h.47c.69,0,1.18,0,1.18-.81V80.49c0-1.61-.37-1.66-1.31-1.93v-.39a15,15,0,0,0,2.54-1.06,2.47,2.47,0,0,1,.54-.27c.15,0,.2.15.2.34v17c0,.81.54.81,1.24.81H146v.64c-.83,0-1.7,0-2.58,0s-1.78,0-2.69,0Z"/><path class="cls-2" d="M156.5,94.31c0,.44.27.46.69.46l1,0v.52a25.17,25.17,0,0,0-3.55.76L154.5,96V94C153,95.17,151.89,96,150.14,96a2.66,2.66,0,0,1-2.71-2.93V86.79c0-.64-.1-1.26-1.48-1.38v-.47c.89,0,2.86-.17,3.18-.17s.27.17.27.72v6.35c0,.74,0,2.86,2.15,2.86a5.55,5.55,0,0,0,3-1.5V86.57c0-.49-1.19-.76-2.07-1v-.44c2.21-.15,3.59-.35,3.84-.35s.2.17.2.45Z"/><path class="cls-2" d="M161.4,92.88a2.65,2.65,0,0,0,2.54,2.51c2.64,0,3.74-2.59,3.74-4.78,0-2.66-2-4.88-3.94-4.88a3.8,3.8,0,0,0-2.34,1.16Zm0-6.71a6.29,6.29,0,0,1,3.67-1.77c2.86,0,4.58,2.49,4.58,5.18,0,3.22-2.36,6.45-5.88,6.45a7.27,7.27,0,0,1-3.43-.86l-.74.57-.51-.28a30.21,30.21,0,0,0,.34-4.38V80.49c0-1.61-.37-1.66-1.31-1.93v-.39a15.34,15.34,0,0,0,2.54-1.06,2.26,2.26,0,0,1,.55-.27c.14,0,.19.15.19.34Z"/><path class="cls-2" d="M55.11,110h.19c.48,0,1-.07,1-.77v-7c0-.7-.51-.77-1-.77h-.19V101c.52,0,1.33.06,2,.06s1.48-.06,2.11-.06v.4H59c-.48,0-1,.07-1,.77v7c0,.7.51.77,1,.77h.19v.4c-.65,0-1.45,0-2.12,0s-1.45,0-2,0Z"/><path class="cls-2" d="M59.14,110.33v-.28H59c-.48,0-1-.09-1-.83v-7c0-.74.57-.82,1-.82h.13v-.29c-.62,0-1.39,0-2,0s-1.4,0-1.92,0v.29h.12c.48,0,1.05.08,1.05.82v7c0,.74-.57.83-1.05.83h-.12v.28c.52,0,1.27,0,1.91,0s1.43,0,2.06,0m.06.12c-.65,0-1.45-.06-2.12-.06s-1.44.06-2,.06h-.06v-.52h.24c.49,0,.93-.05.94-.71v-7c0-.66-.45-.7-.94-.71h-.24V101h.06c.53,0,1.33.06,2,.06s1.47-.06,2.11-.06h.06v.52H59c-.48,0-.93.05-.93.71v7c0,.66.45.7.93.71h.25v.52Z"/><path class="cls-2" d="M68.41,107.75l0,0v-5a1.11,1.11,0,0,0-1.16-1.26H67V101c.63,0,1.25.06,1.88.06S70,101,70.5,101v.4h-.2c-.57,0-1.2.11-1.2,1.71v6.1a9.7,9.7,0,0,0,.08,1.35h-.51l-6.9-7.69v5.52c0,1.17.23,1.57,1.26,1.57h.23v.4c-.58,0-1.15,0-1.73,0s-1.22,0-1.82,0V110h.19c.92,0,1.2-.63,1.2-1.7v-5.65a1.21,1.21,0,0,0-1.22-1.21h-.17V101c.5,0,1,.06,1.53.06s.8-.06,1.2-.06Z"/><path class="cls-2" d="M68.38,107.72Zm0,0,0,0Zm.26,2.78h.45a9,9,0,0,1-.07-1.29v-6.1c0-1.61.67-1.76,1.25-1.76h.14v-.29c-.53,0-1.06,0-1.59,0s-1.21,0-1.82,0v.29h.24a1.17,1.17,0,0,1,1.22,1.32l0,5.06,0,0,0,0-6-6.74c-.4,0-.79,0-1.2,0s-1,0-1.47,0v.29h.12a1.26,1.26,0,0,1,1.28,1.26v5.65c0,1.07-.3,1.75-1.26,1.76h-.13v.29c.57,0,1.17,0,1.76,0s1.12,0,1.67,0v-.28H63c-1.05,0-1.32-.46-1.32-1.63v-5.68Zm.51.12-.55,0-6.8-7.58v5.37c0,1.17.19,1.5,1.2,1.51h.29v.52h-.06c-.58,0-1.16-.06-1.73-.06s-1.22.06-1.82.06h-.06v-.52h.25c.88,0,1.13-.58,1.15-1.64v-5.65a1.17,1.17,0,0,0-1.17-1.15h-.23V101h.06c.51,0,1,0,1.53,0s.79,0,1.25,0l5.89,6.64V102.7c0-1.07-.72-1.2-1.11-1.21h-.36V101H67c.63,0,1.25,0,1.88,0s1.1,0,1.65,0h.06v.51H70.3c-.56,0-1.12.07-1.14,1.65v6.1a8.18,8.18,0,0,0,.08,1.34v.07Z"/><path class="cls-2" d="M72.51,101.7c-1,0-1.05.24-1.25,1.22h-.4c0-.37.12-.75.16-1.14a8.5,8.5,0,0,0,.08-1.14h.32c.11.41.44.39.81.39h6.91c.37,0,.7,0,.73-.41l.32,0c0,.36-.11.72-.15,1.09s0,.72,0,1.08l-.41.15c0-.49-.09-1.29-1-1.29h-2.2v7.14c0,1,.47,1.15,1.12,1.15h.25v.4c-.52,0-1.46,0-2.19,0s-1.74,0-2.26,0V110h.25c.74,0,1.12-.07,1.12-1.13V101.7Z"/><path class="cls-2" d="M77.79,110.45c-.52,0-1.46-.06-2.19-.06s-1.73.06-2.26.06h-.06v-.52h.31c.74,0,1,0,1.06-1.07v-7.1H72.51v-.12h2.25v7.22c0,1.08-.43,1.19-1.17,1.19H73.4v.28c.53,0,1.43,0,2.2,0s1.6,0,2.13,0v-.28h-.19c-.65,0-1.17-.16-1.17-1.21v-7.2h2.25c.9,0,1,.77,1,1.27l.29-.11c0-.35,0-.7,0-1s.08-.69.13-1l-.2,0c-.06.39-.44.4-.78.4h-7c-.32,0-.66,0-.78-.39h-.22a9.81,9.81,0,0,1-.08,1.09c0,.37-.1.72-.15,1.08h.28c.18-.94.29-1.24,1.3-1.23v.12c-1,0-1,.18-1.2,1.18v0h-.52v-.07c0-.37.12-.75.16-1.14a7,7,0,0,0,.08-1.13v0h.43v0c.09.34.34.34.68.34h7c.38,0,.65,0,.67-.36v-.06h.07l.38.06v.06q-.09.54-.15,1.08c0,.36,0,.72,0,1.08v0l0,0-.47.17V103c0-.5-.09-1.23-.94-1.23H76.48v7.08c0,1,.41,1.08,1.06,1.09h.31v.52Z"/><path class="cls-2" d="M80.61,110h.2c.48,0,1-.07,1-.77v-7c0-.7-.51-.77-1-.77h-.2V101c.82,0,2.22.06,3.34.06s2.52-.06,3.44-.06c0,.58,0,1.47,0,2l-.4.11c-.07-.87-.22-1.56-1.64-1.56H83.51v3.51h1.6c.8,0,1-.46,1.06-1.19h.4c0,.53,0,1,0,1.57s0,1,0,1.53l-.4.08c-.08-.8-.12-1.32-1-1.32H83.51v3.12c0,.87.78.87,1.64.87,1.61,0,2.32-.11,2.72-1.63l.38.09c-.18.71-.34,1.42-.46,2.13-.86,0-2.4,0-3.61,0s-2.8,0-3.57,0Z"/><path class="cls-2" d="M87.74,110.33c.12-.68.27-1.35.43-2l-.26-.07c-.41,1.51-1.18,1.64-2.76,1.63-.85,0-1.69,0-1.7-.93v-3.18h1.67c.94,0,1,.55,1.1,1.32l.29-.07c0-.49,0-1,0-1.48s0-1,0-1.51h-.29c-.08.7-.29,1.19-1.11,1.18H83.45v-3.63h1.92c1.4,0,1.63.71,1.69,1.56l.29-.08c0-.38,0-.86,0-1.31,0-.23,0-.45,0-.64-.91,0-2.26,0-3.37,0s-2.45,0-3.28,0v.29h.14c.47,0,1,.08,1,.82v7c0,.74-.58.82-1,.83h-.14v.28c.79,0,2.33,0,3.51,0s2.69,0,3.56,0m.05.12c-.86,0-2.41-.06-3.61-.06s-2.8.06-3.57.06h0v-.52h.25c.48,0,.92-.05.93-.71v-7c0-.65-.45-.7-.93-.71h-.25V101h0c.83,0,2.22,0,3.34,0s2.52,0,3.44,0h.06v0c0,.21,0,.45,0,.7,0,.46,0,1,0,1.35v0h0l-.47.12v-.07c-.08-.86-.19-1.5-1.58-1.51h-1.8v3.39h1.54c.77,0,.91-.4,1-1.12v0h.52V104q0,.78,0,1.56t0,1.53v0h0l-.47.09v-.06c-.09-.82-.1-1.27-1-1.28H83.57v3.07c0,.81.71.81,1.58.81,1.61,0,2.26-.09,2.66-1.59l0-.06,0,0,.43.1v.06c-.17.71-.34,1.42-.45,2.13l0,0Z"/><path class="cls-2" d="M91.77,105.56h.66c1.34,0,2.06-.51,2.06-2.09a1.82,1.82,0,0,0-2-2c-.4,0-.57,0-.76,0Zm-1.72-3.11c0-1-.53-1-1-1h-.24V101c.43,0,1.26.06,2.08.06s1.44-.06,2.15-.06c1.69,0,3.2.46,3.2,2.36a2.53,2.53,0,0,1-1.87,2.36l2.3,3.43A1.48,1.48,0,0,0,98,110v.4c-.45,0-.88,0-1.32,0s-.84,0-1.26,0a37.43,37.43,0,0,1-2.79-4.34h-.88v2.87c0,1,.48,1.07,1.1,1.07h.24v.4c-.76,0-1.54,0-2.31,0s-1.27,0-1.94,0V110h.24c.5,0,1-.23,1-.73Z"/><path class="cls-2" d="M92.43,105.5c1.32,0,2-.47,2-2a1.77,1.77,0,0,0-1.9-1.9,4.71,4.71,0,0,0-.7.05v3.88Zm-.66.12h-.06v-4.1h.05a5.55,5.55,0,0,1,.77-.05,1.89,1.89,0,0,1,2,2c0,1.6-.78,2.15-2.12,2.15Zm0,.37h.92v0a41.26,41.26,0,0,0,2.74,4.31c.41,0,.84,0,1.26,0s.84,0,1.26,0V110a1.53,1.53,0,0,1-1.29-.83l-2.33-3.48.06,0a2.48,2.48,0,0,0,1.83-2.31c0-1.86-1.45-2.29-3.14-2.3-.7,0-1.35,0-2.15,0s-1.59,0-2,0v.29h.18c.42,0,1,.06,1,1.07v6.81c0,.54-.5.79-1,.79h-.18v.28c.64,0,1.25,0,1.88,0s1.51,0,2.25,0v-.28h-.18c-.62,0-1.16-.08-1.16-1.14V106ZM98,110.45c-.45,0-.88-.06-1.32-.06s-.84.06-1.3,0a37,37,0,0,1-2.78-4.31h-.79v2.8c0,1,.41,1,1,1h.3v.52h-.06c-.77,0-1.55-.06-2.31-.06s-1.27.06-1.94.06H88.8v-.52h.3c.48,0,.89-.21.89-.67v-6.81c0-1-.47-.94-.89-1h-.3V101h.06c.44,0,1.26.06,2.08.06s1.44-.06,2.15-.06c1.7,0,3.25.47,3.25,2.42a2.57,2.57,0,0,1-1.83,2.39l2.25,3.37a1.44,1.44,0,0,0,1.27.78h0v.51Z"/><path class="cls-2" d="M107.12,107.75l0,0v-5a1.11,1.11,0,0,0-1.16-1.26h-.3V101c.63,0,1.25.06,1.88.06s1.1-.06,1.65-.06v.4H109c-.57,0-1.19.11-1.19,1.71v6.1a9.75,9.75,0,0,0,.07,1.35h-.51l-6.9-7.69v5.52c0,1.17.23,1.57,1.26,1.57H102v.4c-.57,0-1.15,0-1.73,0s-1.22,0-1.82,0V110h.18c.93,0,1.21-.63,1.21-1.7v-5.65a1.21,1.21,0,0,0-1.22-1.21h-.17V101c.5,0,1,.06,1.54.06s.79-.06,1.19-.06Z"/><path class="cls-2" d="M107.08,107.72Zm0,0,0,0Zm.26,2.78h.45a8.94,8.94,0,0,1-.08-1.29v-6.1c0-1.61.68-1.76,1.26-1.76h.14v-.29c-.53,0-1.06,0-1.59,0s-1.21,0-1.82,0v.29H106a1.16,1.16,0,0,1,1.22,1.31l0,5.07,0,0,0,0-6-6.74c-.4,0-.79,0-1.19,0s-1,0-1.49,0v.29h.12a1.26,1.26,0,0,1,1.28,1.26v5.64c0,1.08-.3,1.76-1.27,1.77h-.13v.28c.58,0,1.18,0,1.77,0s1.12,0,1.68,0v-.28h-.18c-1,0-1.32-.46-1.32-1.63v-5.67Zm.51.12-.55,0-6.8-7.58v5.37c0,1.17.19,1.5,1.2,1.51H102v.52H102c-.58,0-1.16-.06-1.73-.06s-1.22.06-1.82.06h-.06v-.52h.24c.89,0,1.14-.58,1.15-1.65v-5.64a1.15,1.15,0,0,0-1.16-1.15h-.23V101h.06c.51,0,1,.06,1.54.06s.78-.06,1.23,0l5.89,6.64v-4.94c0-1.06-.71-1.19-1.1-1.2h-.36V101h.06c.63,0,1.25.06,1.88.06s1.1-.06,1.65-.06h.06v.52H109c-.55,0-1.12.07-1.14,1.65v6.1a8.18,8.18,0,0,0,.08,1.34v.07Z"/><path class="cls-2" d="M113.32,102.53h0l-1.25,3.8h2.5Zm-1.95,5.94a5.22,5.22,0,0,0-.3,1c0,.4.56.47,1,.47h.16v.4c-.54,0-1.09,0-1.63,0s-1,0-1.45,0V110h.08a1.22,1.22,0,0,0,1.17-.88l2.15-6.15a11.22,11.22,0,0,0,.49-1.66,6.35,6.35,0,0,0,1.22-.58l.11,0a.09.09,0,0,1,.09,0c0,.1.08.23.12.33l2.47,7c.16.47.32,1,.49,1.37a.86.86,0,0,0,.89.54h.08v.4c-.6,0-1.2,0-1.85,0s-1.33,0-2,0V110h.15c.3,0,.83-.06.83-.39a4.32,4.32,0,0,0-.27-1l-.53-1.55h-3Z"/><path class="cls-2" d="M113.26,102.55h0Zm-1.13,3.72h2.35l-1.17-3.59Zm-.16.11,1.28-3.9h.07v0h0v0h0l1.28,3.9Zm2.74,4c.66,0,1.31,0,2,0s1.21,0,1.79,0v-.28h0a.92.92,0,0,1-.94-.58c-.17-.4-.34-.9-.5-1.37l-2.47-7a3,3,0,0,0-.11-.32h-.12a5.26,5.26,0,0,1-1.19.54,11.39,11.39,0,0,1-.5,1.67l-2.15,6.16a1.27,1.27,0,0,1-1.22.91h0v.28c.46,0,.93,0,1.39,0s1.05,0,1.56,0v-.28h-.09c-.43,0-1-.06-1.06-.53a5.23,5.23,0,0,1,.3-1.06h.06l-.06,0,.44-1.43h3.13l.53,1.59a4.31,4.31,0,0,1,.28,1c0,.41-.59.44-.89.45h-.09Zm3.8.12c-.6,0-1.21-.06-1.85-.06s-1.32,0-2,.06h-.06v-.53h.21c.31,0,.76-.06.77-.32a4.55,4.55,0,0,0-.27-.95l-.51-1.51h-3l-.42,1.35a5.51,5.51,0,0,0-.3,1c0,.33.51.4.95.4h.21v.53h-.06c-.53,0-1.09-.06-1.62-.06s-1,0-1.44.06h-.07v-.53h.14a1.14,1.14,0,0,0,1.11-.82l2.15-6.16a16.89,16.89,0,0,0,.53-1.7,7,7,0,0,0,1.22-.57.42.42,0,0,1,.13,0,.14.14,0,0,1,.14.08l.13.33,2.47,7a13.41,13.41,0,0,0,.49,1.36.78.78,0,0,0,.83.49h.14v.53Z"/><path class="cls-2" d="M119.1,101.7c-1,0-1,.24-1.25,1.22h-.4c0-.37.12-.75.16-1.14a7.12,7.12,0,0,0,.08-1.14H118c.11.41.45.39.81.39h6.92c.36,0,.69,0,.72-.41l.32,0c0,.36-.11.72-.14,1.09s0,.72,0,1.08l-.41.15c0-.49-.09-1.29-1-1.29H123v7.14c0,1,.47,1.15,1.12,1.15h.25v.4c-.52,0-1.46,0-2.18,0s-1.75,0-2.27,0V110h.25c.74,0,1.12-.07,1.12-1.13V101.7Z"/><path class="cls-2" d="M124.38,110.45c-.52,0-1.47-.06-2.18-.06s-1.74.06-2.27.06h-.06v-.52h.31c.74,0,1,0,1.06-1.07v-7.1H119.1v-.12h2.26v7.22c0,1.08-.44,1.18-1.18,1.19H120v.28c.53,0,1.43,0,2.21,0s1.59,0,2.12,0v-.28h-.19c-.65,0-1.17-.16-1.17-1.21v-7.2h2.25c.9,0,1,.77,1.05,1.27l.29-.11c0-.35,0-.7,0-1s.08-.69.13-1l-.2,0c-.06.39-.44.41-.77.4h-7c-.31,0-.66,0-.78-.39h-.22a7.88,7.88,0,0,1-.08,1.09c0,.37-.1.72-.15,1.08h.28c.18-.94.3-1.24,1.3-1.23v.12c-1,0-1,.18-1.19,1.18v0h-.52v-.06c.06-.38.12-.76.16-1.15a7,7,0,0,0,.08-1.13v0h.43v0c.1.34.34.34.68.34h7c.37,0,.64,0,.66-.37v-.06h.06l.39.06v.06q-.09.54-.15,1.08c0,.36,0,.72,0,1.08v0l0,0-.48.17V103c0-.5-.09-1.23-.94-1.23h-2.14v7.08c0,1,.42,1.08,1.06,1.09h.31v.52Z"/><path class="cls-2" d="M127.27,110h.19c.49,0,1-.07,1-.77v-7c0-.7-.5-.77-1-.77h-.19V101c.53,0,1.33.06,2,.06s1.47-.06,2.1-.06v.4h-.18c-.49,0-1,.07-1,.77v7c0,.7.51.77,1,.77h.18v.4c-.64,0-1.44,0-2.11,0s-1.45,0-2,0Z"/><path class="cls-2" d="M131.3,110.33v-.28h-.12c-.49,0-1.05-.09-1.05-.83v-7c0-.74.56-.82,1.05-.82h.12v-.29c-.62,0-1.39,0-2,0s-1.41,0-1.93,0v.29h.13c.48,0,1,.08,1,.82v7c0,.74-.57.83-1,.83h-.13v.28c.52,0,1.28,0,1.92,0s1.42,0,2.05,0m.06.12c-.64,0-1.45-.06-2.11-.06s-1.45.06-2,.06h0v-.52h.24c.49,0,.93-.05.93-.71v-7c0-.65-.44-.7-.93-.71h-.24V101h0c.53,0,1.34,0,2,0s1.47,0,2.1,0h.06v.51h-.24c-.5,0-.94.06-.94.71v7c0,.66.44.7.94.71h.24v.52Z"/><path class="cls-2" d="M136.91,110c2.61,0,3.06-2.29,3.06-4.25s-1.06-4.33-3.28-4.33-3.05,2.09-3.05,3.89c0,2.4,1.1,4.69,3.27,4.69m-.2-9.17c2.86,0,5.13,1.77,5.13,4.63a4.91,4.91,0,0,1-5.06,5.13,4.74,4.74,0,0,1-5-4.81,4.88,4.88,0,0,1,5-5"/><path class="cls-2" d="M133.58,105.31c0-1.81.71-4,3.11-4s3.33,2.42,3.34,4.39-.46,4.31-3.12,4.31v-.12c2.55,0,3-2.23,3-4.19s-1-4.27-3.22-4.27-3,2-3,3.83c0,2.39,1.09,4.63,3.21,4.63v.12c-2.22,0-3.32-2.34-3.33-4.75m-1.87.47a4.94,4.94,0,0,1,5-5v.12a4.82,4.82,0,0,0-4.89,4.89,4.67,4.67,0,0,0,5,4.75,4.86,4.86,0,0,0,5-5.08c0-2.81-2.24-4.56-5.08-4.56v-.12c2.88,0,5.19,1.8,5.19,4.68a5,5,0,0,1-5.12,5.2,4.8,4.8,0,0,1-5.07-4.87"/><path class="cls-2" d="M150.88,107.75l0,0v-5a1.11,1.11,0,0,0-1.17-1.26h-.29V101c.63,0,1.24.06,1.87.06s1.1-.06,1.65-.06v.4h-.2c-.56,0-1.19.11-1.19,1.71v6.1a8.38,8.38,0,0,0,.08,1.35h-.51l-6.91-7.69v5.52c0,1.17.23,1.57,1.26,1.57h.23v.4c-.57,0-1.15,0-1.72,0s-1.23,0-1.83,0V110h.19c.93,0,1.2-.63,1.2-1.7v-5.65a1.2,1.2,0,0,0-1.22-1.21h-.17V101c.51,0,1,.06,1.54.06s.79-.06,1.19-.06Z"/><path class="cls-2" d="M150.85,107.72Zm0,0,0,0Zm.27,2.78h.44a9,9,0,0,1-.07-1.29v-6.1c0-1.62.68-1.76,1.25-1.76h.15v-.29c-.53,0-1.06,0-1.6,0s-1.21,0-1.81,0v.29h.23A1.17,1.17,0,0,1,151,102.7v5.06l0,0,0,0-6-6.74c-.39,0-.78,0-1.19,0s-1,0-1.48,0v.29h.11a1.26,1.26,0,0,1,1.28,1.26v5.65c0,1.07-.3,1.75-1.26,1.76h-.13v.28c.58,0,1.18,0,1.76,0s1.12,0,1.68,0v-.28h-.18c-1.05,0-1.32-.46-1.32-1.63v-5.68Zm.51.12-.56,0-6.8-7.58v5.37c0,1.17.2,1.49,1.2,1.5h.29v.53h-.06c-.58,0-1.16-.06-1.73-.06s-1.21.06-1.82.06h-.06v-.53h.25c.88,0,1.14-.57,1.14-1.63v-5.65a1.14,1.14,0,0,0-1.16-1.15h-.23V101h.06c.51,0,1,0,1.54,0s.78,0,1.24,0l5.89,6.64V102.7c0-1.07-.72-1.2-1.11-1.21h-.35V101h.06c.63,0,1.25,0,1.87,0s1.1,0,1.65,0H153v.51h-.26c-.55,0-1.12.07-1.14,1.65v6.1a9.47,9.47,0,0,0,.08,1.34l0,.07Z"/><path class="cls-2" d="M157.09,102.53h0l-1.25,3.8h2.51Zm-2,5.94a6,6,0,0,0-.3,1c0,.4.57.47,1,.47H156v.4c-.54,0-1.09,0-1.63,0s-1,0-1.44,0V110H153a1.21,1.21,0,0,0,1.17-.88l2.15-6.15a11.22,11.22,0,0,0,.49-1.66,6.78,6.78,0,0,0,1.23-.58l.1,0s.07,0,.09,0,.09.23.13.33l2.46,7c.16.47.32,1,.5,1.37a.84.84,0,0,0,.88.54h.08v.4c-.6,0-1.2,0-1.85,0s-1.32,0-2,0V110h.15c.31,0,.83-.06.83-.39a4.32,4.32,0,0,0-.27-1l-.52-1.55h-3Z"/><path class="cls-2" d="M157,102.55h0Zm-1.14,3.72h2.35l-1.17-3.59Zm-.16.11,1.29-3.9h.07v0h0v0h0l1.27,3.9Zm2.74,4c.67,0,1.32,0,1.95,0s1.21,0,1.79,0v-.28h0a.9.9,0,0,1-.93-.58c-.18-.4-.34-.9-.5-1.37l-2.47-7c0-.1-.08-.23-.11-.32h-.13a4.69,4.69,0,0,1-1.19.54,11.39,11.39,0,0,1-.5,1.67l-2.15,6.16a1.27,1.27,0,0,1-1.22.91h0v.28c.47,0,.93,0,1.39,0s1,0,1.57,0v-.28h-.09c-.44,0-1.05-.06-1.07-.53a6,6,0,0,1,.3-1.06h.06l-.06,0,.45-1.43h3.12l.53,1.59a3.84,3.84,0,0,1,.28,1c0,.41-.58.44-.89.45h-.09Zm3.8.12c-.61,0-1.21-.06-1.85-.06s-1.32,0-2,.06h-.06v-.52h.2c.31,0,.77-.07.77-.33a3.81,3.81,0,0,0-.26-.95l-.51-1.51h-3l-.41,1.35a5.51,5.51,0,0,0-.3,1c0,.33.5.41,1,.41h.2v.52H156c-.53,0-1.08-.06-1.62-.06s-1,0-1.44.06h-.06v-.52H153a1.18,1.18,0,0,0,1.12-.83l2.14-6.16a13,13,0,0,0,.53-1.7,6.81,6.81,0,0,0,1.23-.57.35.35,0,0,1,.12,0,.15.15,0,0,1,.15.08l.12.33,2.47,7c.16.47.32,1,.49,1.36a.81.81,0,0,0,.83.5h.14v.52Z"/><path class="cls-2" d="M165.65,109.08c0,.54.38.69.81.75a9.63,9.63,0,0,0,1.77,0,1.94,1.94,0,0,0,1.28-.72,2.92,2.92,0,0,0,.42-1h.39c-.15.76-.34,1.52-.5,2.28-1.18,0-2.36,0-3.54,0s-2.36,0-3.54,0V110h.19c.48,0,1-.07,1-.9V102.2c0-.7-.52-.77-1-.77h-.19V101c.71,0,1.41.06,2.12.06s1.35-.06,2-.06v.4h-.34c-.51,0-.91,0-.91.73Z"/><path class="cls-2" d="M169.77,110.33c.16-.73.33-1.44.48-2.16H170a3,3,0,0,1-.41.94,2,2,0,0,1-1.33.75c-.35,0-.7,0-1,0s-.51,0-.75,0c-.44,0-.86-.23-.86-.8v-6.92c0-.75.47-.78,1-.78h.28v-.29c-.66,0-1.31,0-2,0s-1.37,0-2.06,0v.29h.13c.47,0,1.06.08,1.06.82v6.89c0,.87-.58,1-1.06,1h-.13v.28c1.16,0,2.32,0,3.48,0s2.33,0,3.49,0m0,.12c-1.18,0-2.36-.06-3.54-.06s-2.36.06-3.54.06h-.06v-.52h.25c.48,0,.94-.05.94-.84V102.2c0-.65-.45-.7-.94-.71h-.25V101h.06c.71,0,1.41,0,2.12,0s1.35,0,2,0h0v.51h-.39c-.52,0-.84,0-.85.67v6.92c0,.5.33.63.75.69.23,0,.48,0,.74,0a9,9,0,0,0,1-.06,1.8,1.8,0,0,0,1.24-.7,2.87,2.87,0,0,0,.41-.94v0h.51v.07c-.16.77-.34,1.52-.51,2.28v0Z"/></g></g></svg>