<svg xmlns="http://www.w3.org/2000/svg" xmlns:xlink="http://www.w3.org/1999/xlink" viewBox="0 0 225.44 140.9"><defs><style>.cls-1{fill:#f1f2f2;}.cls-2{fill:#f58220;}.cls-3{fill:url(#radial-gradient);}.cls-4{fill:#001722;}.cls-5{fill:#231f20;}</style><radialGradient id="radial-gradient" cx="109.04" cy="-415.62" r="11.11" gradientTransform="translate(6.42 486.08)" gradientUnits="userSpaceOnUse"><stop offset="0.01" stop-color="#ffeee0"/><stop offset="0.11" stop-color="#fee9d7"/><stop offset="0.28" stop-color="#fddbbf"/><stop offset="0.49" stop-color="#fbc597"/><stop offset="0.74" stop-color="#f8a560"/><stop offset="1" stop-color="#f48120"/></radialGradient></defs><g id="Layer_2" data-name="Layer 2"><g id="Capa_1" data-name="Capa 1"><rect class="cls-1" width="225.44" height="140.9" rx="7.52"/><path class="cls-2" d="M62,140.9h156a7.52,7.52,0,0,0,7.52-7.51V80.63C210.47,90.12,154,122.83,62,140.9Z"/><path class="cls-3" d="M115.47,59.48a11.05,11.05,0,0,0-11.25,10.84,11.24,11.24,0,1,0,11.25-10.84Z"/><path class="cls-4" d="M51.6,59.87h-6V81h6a11.06,11.06,0,0,0,7.53-2.43,10.64,10.64,0,0,0,3.82-8.11C62.92,64.2,58.27,59.87,51.6,59.87Zm4.81,15.85c-1.3,1.17-3,1.67-5.63,1.67H49.67v-14h1.11c2.66,0,4.27.48,5.63,1.71a7.11,7.11,0,0,1,2.27,5.25A7.23,7.23,0,0,1,56.41,75.72Z"/><rect class="cls-4" x="64.82" y="59.87" width="4.11" height="21.1"/><path class="cls-4" d="M79,68c-2.48-.91-3.2-1.51-3.2-2.65C75.8,64,77.1,63,78.87,63a4.3,4.3,0,0,1,3.32,1.7l2.15-2.81a9.23,9.23,0,0,0-6.2-2.34c-3.73,0-6.58,2.59-6.58,6,0,2.91,1.33,4.4,5.19,5.79a17,17,0,0,1,2.85,1.2,2.53,2.53,0,0,1,1.23,2.18,3,3,0,0,1-3.2,3,4.87,4.87,0,0,1-4.49-2.81l-2.65,2.56a8.2,8.2,0,0,0,7.31,4c4.26,0,7.27-2.85,7.27-6.93C85.07,71.2,83.68,69.68,79,68Z"/><path class="cls-4" d="M86.36,70.43a10.93,10.93,0,0,0,11.14,11,11.24,11.24,0,0,0,5.16-1.23V75.37a6.57,6.57,0,0,1-5,2.31A6.9,6.9,0,0,1,90.6,70.4a7,7,0,0,1,6.9-7.24,6.91,6.91,0,0,1,5.16,2.37V60.69A10.43,10.43,0,0,0,97.6,59.4,11.09,11.09,0,0,0,86.36,70.43Z"/><polygon class="cls-4" points="136 74.04 130.37 59.87 125.87 59.87 134.83 81.51 137.04 81.51 146.16 59.87 141.7 59.87 136 74.04"/><polygon class="cls-4" points="148.03 80.97 159.7 80.97 159.7 77.39 152.14 77.39 152.14 71.7 159.41 71.7 159.41 68.13 152.14 68.13 152.14 63.44 159.7 63.44 159.7 59.87 148.03 59.87 148.03 80.97"/><path class="cls-4" d="M176,66.1c0-3.95-2.72-6.23-7.47-6.23h-6.11V81h4.12V72.49h.54L172.76,81h5.06l-6.64-8.89A5.61,5.61,0,0,0,176,66.1Zm-8.26,3.48h-1.2V63.19h1.27c2.56,0,3.95,1.08,3.95,3.13S170.36,69.58,167.73,69.58Z"/><path class="cls-5" d="M178.89,61.44c0-.37-.25-.57-.7-.57h-.6v1.86H178V62l.52.72h.55l-.61-.77A.51.51,0,0,0,178.89,61.44Zm-.78.26H178v-.48h.08c.23,0,.34.07.34.23S178.33,61.7,178.11,61.7Z"/><path class="cls-5" d="M178.28,60.17a1.63,1.63,0,1,0,1.6,1.63A1.62,1.62,0,0,0,178.28,60.17Zm0,3a1.33,1.33,0,1,1,1.28-1.33A1.31,1.31,0,0,1,178.27,63.13Z"/></g></g></svg>