<svg xmlns="http://www.w3.org/2000/svg" viewBox="0 0 225.44 140.9"><defs><style>.cls-1{fill:#13457c;}.cls-2{fill:#fbb231;}.cls-2,.cls-3,.cls-4{fill-rule:evenodd;}.cls-3{fill:#ec1c2e;}.cls-4{fill:#fff;}.cls-5{fill:none;stroke:#fff;stroke-miterlimit:2.61;stroke-width:0.22px;}</style></defs><g id="Layer_2" data-name="Layer 2"><g id="Capa_1" data-name="Capa 1"><path class="cls-1" d="M225.44,133.39a7.51,7.51,0,0,1-7.51,7.51H7.51A7.51,7.51,0,0,1,0,133.39V7.52A7.51,7.51,0,0,1,7.51,0H217.93a7.52,7.52,0,0,1,7.51,7.52Z"/><polygon class="cls-2" points="139.77 110.9 141.86 110.84 143.92 110.69 145.94 110.44 147.95 110.08 149.9 109.63 151.82 109.08 153.71 108.44 155.54 107.72 157.35 106.9 159.09 106.01 160.79 105.03 162.44 103.98 164.02 102.85 165.55 101.65 167.02 100.38 168.42 99.03 169.78 97.62 171.04 96.15 172.25 94.62 173.38 93.04 174.43 91.39 175.41 89.69 176.29 87.95 177.11 86.15 177.84 84.31 178.48 82.42 179.03 80.5 179.48 78.55 179.83 76.54 180.09 74.52 180.24 72.47 180.29 70.38 180.24 68.3 180.09 66.26 179.83 64.24 179.48 62.26 179.03 60.31 178.48 58.4 177.84 56.52 177.11 54.69 176.29 52.9 175.41 51.15 174.43 49.48 173.38 47.83 172.25 46.24 171.04 44.73 169.78 43.26 168.42 41.85 167.02 40.51 165.55 39.24 164.02 38.04 162.44 36.91 160.79 35.86 159.09 34.89 157.35 34.01 155.54 33.18 153.71 32.46 151.82 31.82 149.9 31.27 147.95 30.82 145.94 30.47 143.92 30.21 141.86 30.06 139.77 30 137.7 30.06 135.64 30.21 133.62 30.47 131.63 30.82 129.68 31.27 127.75 31.82 125.89 32.46 124.04 33.18 122.25 34.01 120.52 34.89 118.83 35.86 117.19 36.91 115.61 38.04 114.08 39.24 112.62 40.51 111.22 41.85 109.88 43.26 108.61 44.73 107.41 46.24 106.29 47.83 105.24 49.48 104.27 51.15 103.37 52.9 102.57 54.69 101.84 56.52 101.22 58.4 100.67 60.31 100.22 62.26 99.86 64.24 99.61 66.26 99.46 68.3 99.4 70.38 99.46 72.47 99.61 74.52 99.86 76.54 100.22 78.55 100.67 80.5 101.22 82.42 101.84 84.31 102.57 86.15 103.37 87.95 104.27 89.69 105.24 91.39 106.29 93.04 107.41 94.62 108.61 96.15 109.88 97.62 111.22 99.03 112.62 100.38 114.08 101.65 115.61 102.85 117.19 103.98 118.83 105.03 120.52 106.01 122.25 106.9 124.04 107.72 125.89 108.44 127.75 109.08 129.68 109.63 131.63 110.08 133.62 110.44 135.64 110.69 137.7 110.84 139.77 110.9 139.77 110.9 139.77 110.9"/><polygon class="cls-3" points="85.67 110.9 87.74 110.84 89.8 110.69 91.82 110.44 93.81 110.08 95.76 109.63 97.68 109.08 99.55 108.44 101.4 107.72 103.18 106.9 104.92 106.01 106.61 105.03 108.25 103.98 109.83 102.85 111.36 101.65 112.81 100.38 114.22 99.03 115.56 97.62 116.83 96.15 118.03 94.62 119.14 93.04 120.19 91.39 121.16 89.69 122.06 87.95 122.87 86.15 123.59 84.31 124.22 82.42 124.77 80.5 125.22 78.55 125.57 76.54 125.83 74.52 125.98 72.47 126.03 70.38 125.98 68.3 125.83 66.26 125.57 64.24 125.22 62.26 124.77 60.31 124.22 58.4 123.59 56.52 122.87 54.69 122.06 52.9 121.16 51.15 120.19 49.48 119.14 47.83 118.03 46.24 116.83 44.73 115.56 43.26 114.22 41.85 112.81 40.51 111.36 39.24 109.83 38.04 108.25 36.91 106.61 35.86 104.92 34.89 103.18 34.01 101.4 33.18 99.55 32.46 97.68 31.82 95.76 31.27 93.81 30.82 91.82 30.47 89.8 30.21 87.74 30.06 85.67 30 83.58 30.06 81.52 30.21 79.5 30.47 77.49 30.82 75.54 31.27 73.62 31.82 71.73 32.46 69.89 33.18 68.09 34.01 66.35 34.89 64.66 35.86 63 36.91 61.42 38.04 59.89 39.24 58.42 40.51 57.01 41.85 55.66 43.26 54.39 44.73 53.19 46.24 52.06 47.83 51.01 49.48 50.03 51.15 49.14 52.9 48.32 54.69 47.6 56.52 46.96 58.4 46.41 60.31 45.96 62.26 45.61 64.24 45.35 66.26 45.2 68.3 45.14 70.38 45.2 72.47 45.35 74.52 45.61 76.54 45.96 78.55 46.41 80.5 46.96 82.42 47.6 84.31 48.32 86.15 49.14 87.95 50.03 89.69 51.01 91.39 52.06 93.04 53.19 94.62 54.39 96.15 55.66 97.62 57.01 99.03 58.42 100.38 59.89 101.65 61.42 102.85 63 103.98 64.66 105.03 66.35 106.01 68.09 106.9 69.89 107.72 71.73 108.44 73.62 109.08 75.54 109.63 77.49 110.08 79.5 110.44 81.52 110.69 83.58 110.84 85.67 110.9 85.67 110.9 85.67 110.9"/><polygon class="cls-2" points="107.98 45.52 129.48 45.52 129.48 43.32 109.84 43.32 107.98 45.52 107.98 45.52 107.98 45.52"/><polygon class="cls-2" points="104.77 50.4 129.48 50.4 129.48 48.2 106.06 48.2 104.77 50.4 104.77 50.4 104.77 50.4"/><polygon class="cls-2" points="102.36 55.27 129.48 55.27 129.48 53.08 103.32 53.08 102.36 55.27 102.36 55.27 102.36 55.27"/><polygon class="cls-2" points="100.71 60.16 129.48 60.16 129.48 57.96 101.4 57.96 100.71 60.16 100.71 60.16 100.71 60.16"/><polygon class="cls-2" points="101.67 83.76 129.54 83.76 129.54 81.56 100.98 81.56 101.67 83.76 101.67 83.76 101.67 83.76"/><polygon class="cls-2" points="103.73 88.64 129.54 88.64 129.54 86.45 102.7 86.45 103.73 88.64 103.73 88.64 103.73 88.64"/><polygon class="cls-2" points="106.62 93.52 129.54 93.52 129.54 91.32 105.24 91.32 106.62 93.52 106.62 93.52 106.62 93.52"/><polygon class="cls-2" points="110.6 98.4 129.54 98.4 129.54 96.19 108.68 96.19 110.6 98.4 110.6 98.4 110.6 98.4"/><polygon class="cls-2" points="99.75 65.03 129.48 65.03 129.48 62.83 100.17 62.83 99.75 65.03 99.75 65.03 99.75 65.03"/><polygon class="cls-2" points="117.86 78.89 129.2 78.89 129.2 76.69 118.27 76.69 117.86 78.89 117.86 78.89 117.86 78.89"/><polygon class="cls-2" points="118.76 74.02 129.2 74.02 129.2 71.81 119.17 71.81 118.76 74.02 118.76 74.02 118.76 74.02"/><polygon class="cls-2" points="99 71.81 101.94 71.81 101.94 74.02 99.13 74.02 99 71.81 99 71.81 99 71.81"/><polygon class="cls-4" points="93.49 69.15 93.3 69.13 93.11 69.11 92.94 69.08 92.76 69.05 92.59 69.03 92.42 69 92.24 68.97 92.05 68.94 91.86 68.92 91.64 68.9 91.39 68.89 91.14 68.88 90.85 68.88 90.53 68.89 90.18 68.92 89.79 68.94 89.51 68.99 89.25 69.03 89.02 69.11 88.81 69.19 88.63 69.28 88.45 69.39 88.31 69.53 88.19 69.65 88.11 69.8 88.03 69.95 88.01 70.12 88.01 70.28 88.05 70.46 88.11 70.64 88.21 70.81 88.35 70.99 88.63 71.25 88.95 71.45 89.33 71.63 89.75 71.78 90.18 71.92 90.63 72.07 91.08 72.23 91.52 72.41 91.93 72.64 92.31 72.93 92.65 73.27 92.94 73.69 93.15 74.21 93.29 74.82 93.35 75.56 93.29 76.42 93.19 77.06 93.03 77.62 92.81 78.14 92.54 78.59 92.23 78.99 91.87 79.33 91.49 79.63 91.07 79.89 90.63 80.09 90.18 80.27 89.72 80.4 89.24 80.51 88.78 80.6 88.32 80.64 87.87 80.67 87.45 80.68 86.87 80.68 86.32 80.67 85.84 80.67 85.39 80.65 84.98 80.64 84.61 80.61 84.29 80.58 83.97 80.54 83.69 80.51 83.43 80.46 83.17 80.42 82.93 80.35 82.7 80.3 82.48 80.21 82.27 80.13 82.04 80.05 82.65 77.03 82.77 77.06 82.92 77.1 83.11 77.16 83.34 77.21 83.59 77.27 83.86 77.32 84.16 77.39 84.49 77.44 84.83 77.5 85.19 77.55 85.56 77.59 85.94 77.64 86.33 77.65 86.73 77.66 87.13 77.66 87.52 77.65 87.92 77.57 88.23 77.46 88.48 77.31 88.67 77.12 88.8 76.92 88.91 76.7 88.98 76.49 89.04 76.28 89.06 75.89 88.94 75.55 88.71 75.27 88.36 75.04 87.96 74.84 87.48 74.63 86.95 74.44 86.41 74.22 85.87 73.98 85.35 73.69 84.87 73.34 84.44 72.92 84.09 72.39 83.85 71.78 83.73 71.05 83.74 70.17 83.81 69.64 83.9 69.13 84.04 68.67 84.2 68.23 84.42 67.83 84.67 67.47 84.96 67.13 85.3 66.83 85.69 66.57 86.13 66.35 86.62 66.15 87.17 66 87.78 65.87 88.45 65.78 89.18 65.72 89.99 65.71 90.49 65.71 90.96 65.72 91.38 65.74 91.76 65.75 92.1 65.78 92.42 65.81 92.69 65.83 92.94 65.86 93.17 65.89 93.36 65.93 93.54 65.96 93.7 65.98 93.83 66.01 93.96 66.03 94.08 66.05 94.19 66.07 93.49 69.15 93.49 69.15 93.49 69.15"/><polyline class="cls-5" points="93.49 69.15 93.49 69.15 93.3 69.13 93.11 69.11 92.94 69.08 92.76 69.05 92.59 69.03 92.42 69 92.24 68.97 92.05 68.94 91.86 68.92 91.64 68.9 91.39 68.89 91.14 68.88 90.85 68.88 90.53 68.89 90.18 68.92 89.79 68.94 89.79 68.94 89.51 68.99 89.25 69.03 89.02 69.11 88.81 69.19 88.63 69.28 88.45 69.39 88.31 69.53 88.19 69.65 88.11 69.8 88.03 69.95 88.01 70.12 88.01 70.28 88.05 70.46 88.11 70.64 88.21 70.81 88.35 70.99 88.35 70.99 88.63 71.25 88.95 71.45 89.33 71.63 89.75 71.78 90.18 71.92 90.63 72.07 91.08 72.23 91.52 72.41 91.93 72.64 92.31 72.93 92.65 73.27 92.94 73.69 93.15 74.21 93.29 74.82 93.35 75.56 93.29 76.42 93.29 76.42 93.19 77.06 93.03 77.62 92.81 78.14 92.54 78.59 92.23 78.99 91.87 79.33 91.49 79.63 91.07 79.89 90.63 80.09 90.18 80.27 89.72 80.4 89.24 80.51 88.78 80.6 88.32 80.64 87.87 80.67 87.45 80.68 87.45 80.68 86.87 80.68 86.32 80.67 85.84 80.67 85.39 80.65 84.98 80.64 84.61 80.61 84.29 80.58 83.97 80.54 83.69 80.51 83.43 80.46 83.17 80.42 82.93 80.35 82.7 80.3 82.48 80.21 82.27 80.13 82.04 80.05 82.65 77.03 82.65 77.03 82.77 77.06 82.92 77.1 83.11 77.16 83.34 77.21 83.59 77.27 83.86 77.32 84.16 77.39 84.49 77.44 84.83 77.5 85.19 77.55 85.56 77.59 85.94 77.64 86.33 77.65 86.73 77.66 87.13 77.66 87.52 77.65 87.52 77.65 87.92 77.57 88.23 77.46 88.48 77.31 88.67 77.12 88.8 76.92 88.91 76.7 88.98 76.49 89.04 76.28 89.04 76.28 89.06 75.89 88.94 75.55 88.71 75.27 88.36 75.04 87.96 74.84 87.48 74.63 86.95 74.44 86.41 74.22 85.87 73.98 85.35 73.69 84.87 73.34 84.44 72.92 84.09 72.39 83.85 71.78 83.73 71.05 83.74 70.17 83.74 70.17 83.81 69.64 83.9 69.13 84.04 68.67 84.2 68.23 84.42 67.83 84.67 67.47 84.96 67.13 85.3 66.83 85.69 66.57 86.13 66.35 86.62 66.15 87.17 66 87.78 65.87 88.45 65.78 89.18 65.72 89.99 65.71 89.99 65.71 90.49 65.71 90.96 65.72 91.38 65.74 91.76 65.75 92.1 65.78 92.42 65.81 92.69 65.83 92.94 65.86 93.17 65.89 93.36 65.93 93.54 65.96 93.7 65.98 93.83 66.01 93.96 66.03 94.08 66.05 94.19 66.07 93.49 69.15"/><polygon class="cls-4" points="96.73 62.7 100.51 62.7 99.95 66 102.23 66 101.74 69.08 99.33 69.01 98.03 76.62 98.01 76.9 98.08 77.13 98.22 77.31 98.39 77.46 98.64 77.55 98.91 77.64 99.21 77.69 99.54 77.72 99.84 77.7 100.11 77.68 100.36 77.64 100.58 77.58 100.75 77.53 100.88 77.48 100.96 77.46 100.98 77.44 100.51 79.98 100.41 80.05 100.32 80.1 100.22 80.16 100.13 80.21 100.03 80.25 99.92 80.3 99.8 80.34 99.68 80.38 99.54 80.42 99.4 80.44 99.24 80.47 99.08 80.5 98.9 80.53 98.69 80.56 98.47 80.58 98.24 80.61 97.21 80.61 96.66 80.57 96.18 80.51 95.75 80.43 95.38 80.34 95.06 80.21 94.81 80.08 94.58 79.91 94.4 79.74 94.26 79.55 94.16 79.31 94.09 79.08 94.06 78.82 94.04 78.53 94.04 78.24 94.08 77.92 94.12 77.58 96.73 62.7 96.73 62.7 96.73 62.7"/><polyline class="cls-5" points="96.73 62.7 100.51 62.7 99.95 66 102.23 66 101.74 69.08 99.33 69.01 98.03 76.62 98.03 76.62 98.01 76.9 98.08 77.13 98.22 77.31 98.39 77.46 98.64 77.55 98.91 77.64 99.21 77.69 99.54 77.72 99.54 77.72 99.84 77.7 100.11 77.68 100.36 77.64 100.58 77.58 100.75 77.53 100.88 77.48 100.96 77.46 100.98 77.44 100.51 79.98 100.51 79.98 100.41 80.05 100.32 80.1 100.22 80.16 100.13 80.21 100.03 80.25 99.92 80.3 99.8 80.34 99.68 80.38 99.54 80.42 99.4 80.44 99.24 80.47 99.08 80.5 98.9 80.53 98.69 80.56 98.47 80.58 98.24 80.61 97.21 80.61 97.21 80.61 96.66 80.57 96.18 80.51 95.75 80.43 95.38 80.34 95.06 80.21 94.81 80.08 94.58 79.91 94.4 79.74 94.26 79.55 94.16 79.31 94.09 79.08 94.06 78.82 94.04 78.53 94.04 78.24 94.08 77.92 94.12 77.58 96.73 62.7"/><polyline class="cls-5" points="105.24 74.22 105.24 74.22 105.2 74.45 105.19 74.7 105.21 74.96 105.27 75.22 105.37 75.48 105.47 75.73 105.62 75.98 105.79 76.22 105.98 76.45 106.18 76.66 106.4 76.86 106.65 77.02 106.89 77.17 107.17 77.29 107.44 77.39 107.71 77.44 107.71 77.44 108.07 77.5 108.41 77.54 108.76 77.58 109.12 77.61 109.47 77.62 109.84 77.62 110.2 77.61 110.56 77.58 110.93 77.53 111.3 77.46 111.68 77.38 112.05 77.25 112.43 77.1 112.83 76.94 113.21 76.72 113.61 76.49 113.06 79.85 113.06 79.85 112.84 79.95 112.62 80.06 112.41 80.14 112.2 80.23 112 80.3 111.78 80.36 111.56 80.42 111.33 80.46 111.08 80.5 110.81 80.53 110.52 80.56 110.21 80.58 109.85 80.6 109.48 80.6 109.06 80.61 108.61 80.61 108.61 80.61 107.94 80.6 107.26 80.53 106.58 80.43 105.9 80.27 105.23 80.06 104.59 79.8 103.97 79.46 103.4 79.07 102.87 78.6 102.4 78.04 102.01 77.42 101.68 76.69 101.45 75.89 101.3 74.97 101.26 73.96 101.33 72.85 101.33 72.85 101.38 72.41 101.46 71.9 101.57 71.37 101.72 70.8 101.93 70.21 102.17 69.63 102.49 69.03 102.87 68.45 103.31 67.91 103.84 67.39 104.44 66.93 105.12 66.52 105.91 66.17 106.8 65.93 107.78 65.77 108.89 65.71 108.89 65.71 109.42 65.72 109.98 65.78 110.53 65.87 111.09 66.01 111.64 66.22 112.17 66.46 112.66 66.79 113.11 67.17 113.52 67.64 113.86 68.18 114.14 68.81 114.33 69.53 114.44 70.35 114.45 71.28 114.36 72.31 114.15 73.46 114.08 74.29 104.14 74.29 104.77 71.6 110.74 71.6 110.74 71.6 110.77 71.26 110.75 70.94 110.73 70.64 110.67 70.36 110.58 70.11 110.48 69.87 110.34 69.67 110.21 69.48 110.05 69.31 109.87 69.18 109.66 69.05 109.46 68.94 109.24 68.86 109.02 68.81 108.79 68.77 108.55 68.74 108.55 68.74 108.28 68.75 108.04 68.79 107.81 68.85 107.58 68.93 107.34 69.04 107.14 69.16 106.93 69.31 106.76 69.48 106.58 69.67 106.42 69.87 106.27 70.09 106.14 70.32 106.02 70.57 105.92 70.84 105.84 71.11 105.79 71.4 105.24 74.22"/><polygon class="cls-4" points="137.78 66.82 137.6 66.72 137.43 66.64 137.24 66.54 137.03 66.45 136.83 66.37 136.59 66.28 136.36 66.2 136.12 66.12 135.86 66.05 135.6 66 135.31 65.94 135.03 65.9 134.71 65.87 134.4 65.85 134.07 65.85 133.73 65.85 133.39 65.85 133.03 65.87 132.67 65.92 132.28 65.98 131.9 66.09 131.52 66.24 131.14 66.43 130.75 66.68 130.38 66.98 130.03 67.33 129.69 67.77 129.36 68.28 129.06 68.88 128.78 69.56 128.52 70.32 128.3 71.2 128.22 71.69 128.16 72.16 128.13 72.64 128.15 73.11 128.19 73.57 128.29 74.01 128.41 74.42 128.56 74.82 128.76 75.19 129.01 75.55 129.3 75.86 129.62 76.15 129.99 76.39 130.41 76.6 130.88 76.78 131.4 76.9 131.57 76.94 131.78 76.98 132.03 77.01 132.3 77.03 132.6 77.06 132.91 77.06 133.25 77.06 133.59 77.03 133.95 76.99 134.3 76.92 134.64 76.83 134.98 76.72 135.32 76.57 135.64 76.39 135.93 76.18 136.2 75.93 135.58 79.57 135.5 79.64 135.42 79.72 135.31 79.82 135.19 79.9 135.04 80.01 134.85 80.1 134.63 80.2 134.38 80.28 134.07 80.38 133.72 80.44 133.31 80.5 132.83 80.56 132.3 80.58 131.68 80.6 130.99 80.58 130.22 80.54 129.59 80.47 128.97 80.34 128.34 80.13 127.71 79.86 127.11 79.53 126.54 79.12 125.99 78.64 125.49 78.1 125.04 77.48 124.66 76.8 124.33 76.04 124.08 75.21 123.92 74.29 123.87 73.32 123.89 72.26 124.04 71.13 124.15 70.57 124.28 70.02 124.41 69.49 124.55 68.99 124.7 68.51 124.87 68.03 125.05 67.58 125.24 67.16 125.45 66.73 125.65 66.34 125.89 65.96 126.13 65.6 126.38 65.26 126.65 64.93 126.92 64.63 127.21 64.35 127.52 64.07 127.84 63.81 128.16 63.58 128.51 63.36 128.87 63.16 129.24 62.98 129.62 62.82 130.02 62.67 130.44 62.53 130.86 62.42 131.3 62.33 131.76 62.25 132.23 62.18 132.72 62.12 133.21 62.1 133.73 62.08 134.17 62.1 134.59 62.12 135 62.16 135.41 62.22 135.79 62.27 136.16 62.35 136.51 62.42 136.84 62.51 137.15 62.59 137.43 62.67 137.69 62.75 137.9 62.83 138.09 62.9 138.26 62.96 138.38 63.01 138.47 63.04 137.78 66.82 137.78 66.82 137.78 66.82"/><polyline class="cls-5" points="137.78 66.82 137.78 66.82 137.6 66.72 137.43 66.64 137.24 66.54 137.03 66.45 136.83 66.37 136.59 66.28 136.36 66.2 136.12 66.12 135.86 66.05 135.6 66 135.31 65.94 135.03 65.9 134.71 65.87 134.4 65.85 134.07 65.85 133.73 65.85 133.73 65.85 133.39 65.85 133.03 65.87 132.67 65.92 132.28 65.98 131.9 66.09 131.52 66.24 131.14 66.43 130.75 66.68 130.38 66.98 130.03 67.33 129.69 67.77 129.36 68.28 129.06 68.88 128.78 69.56 128.52 70.32 128.3 71.2 128.3 71.2 128.22 71.69 128.16 72.16 128.13 72.64 128.15 73.11 128.19 73.57 128.29 74.01 128.41 74.42 128.56 74.82 128.76 75.19 129.01 75.55 129.3 75.86 129.62 76.15 129.99 76.39 130.41 76.6 130.88 76.78 131.4 76.9 131.4 76.9 131.57 76.94 131.78 76.98 132.03 77.01 132.3 77.03 132.6 77.06 132.91 77.06 133.25 77.06 133.59 77.03 133.95 76.99 134.3 76.92 134.64 76.83 134.98 76.72 135.32 76.57 135.64 76.39 135.93 76.18 136.2 75.93 135.58 79.57 135.58 79.57 135.5 79.64 135.42 79.72 135.31 79.82 135.19 79.9 135.04 80.01 134.85 80.1 134.63 80.2 134.38 80.28 134.07 80.38 133.72 80.44 133.31 80.5 132.83 80.56 132.3 80.58 131.68 80.6 130.99 80.58 130.22 80.54 130.22 80.54 129.59 80.47 128.97 80.34 128.34 80.13 127.71 79.86 127.11 79.53 126.54 79.12 125.99 78.64 125.49 78.1 125.04 77.48 124.66 76.8 124.33 76.04 124.08 75.21 123.92 74.29 123.87 73.32 123.89 72.26 124.04 71.13 124.04 71.13 124.15 70.57 124.28 70.02 124.41 69.49 124.55 68.99 124.7 68.51 124.87 68.03 125.05 67.58 125.24 67.16 125.45 66.73 125.65 66.34 125.89 65.96 126.13 65.6 126.38 65.26 126.65 64.93 126.92 64.63 127.21 64.35 127.52 64.07 127.84 63.81 128.16 63.58 128.51 63.36 128.87 63.16 129.24 62.98 129.62 62.82 130.02 62.67 130.44 62.53 130.86 62.42 131.3 62.33 131.76 62.25 132.23 62.18 132.72 62.12 133.21 62.1 133.73 62.08 133.73 62.08 134.17 62.1 134.59 62.12 135 62.16 135.41 62.22 135.79 62.27 136.16 62.35 136.51 62.42 136.84 62.51 137.15 62.59 137.43 62.67 137.69 62.75 137.9 62.83 138.09 62.9 138.26 62.96 138.38 63.01 138.47 63.04 137.78 66.82"/><polygon class="cls-4" points="171.37 80.61 167.59 80.61 167.87 79.1 167.87 78.96 167.65 79.23 167.42 79.48 167.19 79.69 166.94 79.89 166.69 80.06 166.44 80.21 166.2 80.34 165.94 80.46 165.68 80.56 165.42 80.62 165.16 80.69 164.89 80.73 164.62 80.77 164.36 80.8 164.09 80.81 163.81 80.81 163.1 80.76 162.45 80.61 161.85 80.38 161.3 80.06 160.81 79.67 160.38 79.21 159.99 78.7 159.67 78.13 159.39 77.51 159.17 76.87 159.02 76.2 158.91 75.51 158.88 74.81 158.89 74.1 158.96 73.41 159.08 72.71 159.28 71.9 159.53 71.14 159.81 70.44 160.16 69.79 160.51 69.18 160.92 68.63 161.34 68.14 161.79 67.69 162.27 67.29 162.78 66.95 163.3 66.65 163.81 66.42 164.36 66.23 164.9 66.11 165.45 66.03 166.01 66 166.41 66.01 166.78 66.05 167.14 66.12 167.47 66.22 167.78 66.33 168.06 66.45 168.33 66.6 168.57 66.75 168.79 66.91 169 67.09 169.17 67.27 169.34 67.44 169.47 67.62 169.6 67.8 169.71 67.96 169.79 68.13 169.79 68.13 170.75 62.76 174.46 62.76 171.37 80.61 171.37 80.61 171.37 80.61"/><polyline class="cls-5" points="171.37 80.61 167.59 80.61 167.87 79.1 167.87 78.96 167.87 78.96 167.65 79.23 167.42 79.48 167.19 79.69 166.94 79.89 166.69 80.06 166.44 80.21 166.2 80.34 165.94 80.46 165.68 80.56 165.42 80.62 165.16 80.69 164.89 80.73 164.62 80.77 164.36 80.8 164.09 80.81 163.81 80.81 163.81 80.81 163.1 80.76 162.45 80.61 161.85 80.38 161.3 80.06 160.81 79.67 160.38 79.21 159.99 78.7 159.67 78.13 159.39 77.51 159.17 76.87 159.02 76.2 158.91 75.51 158.88 74.81 158.89 74.1 158.96 73.41 159.08 72.71 159.08 72.71 159.28 71.9 159.53 71.14 159.81 70.44 160.16 69.79 160.51 69.18 160.92 68.63 161.34 68.14 161.79 67.69 162.27 67.29 162.78 66.95 163.3 66.65 163.81 66.42 164.36 66.23 164.9 66.11 165.45 66.03 166.01 66 166.01 66 166.41 66.01 166.78 66.05 167.14 66.12 167.47 66.22 167.78 66.33 168.06 66.45 168.33 66.6 168.57 66.75 168.79 66.91 169 67.09 169.17 67.27 169.34 67.44 169.47 67.62 169.6 67.8 169.71 67.96 169.79 68.13 169.79 68.13 170.75 62.76 174.46 62.76 171.37 80.61"/><polygon class="cls-2" points="165.19 77.31 165.57 77.28 165.93 77.2 166.25 77.1 166.57 76.95 166.85 76.79 167.13 76.58 167.38 76.35 167.62 76.11 167.82 75.83 168.01 75.53 168.19 75.22 168.34 74.89 168.48 74.55 168.59 74.2 168.68 73.83 168.75 73.46 168.82 73.08 168.86 72.68 168.86 72.31 168.85 71.93 168.81 71.58 168.75 71.24 168.66 70.91 168.55 70.59 168.41 70.32 168.25 70.06 168.07 69.84 167.87 69.65 167.63 69.49 167.38 69.38 167.13 69.31 166.84 69.28 166.47 69.31 166.13 69.37 165.82 69.48 165.5 69.61 165.23 69.79 164.96 70.01 164.73 70.24 164.5 70.5 164.29 70.8 164.1 71.11 163.92 71.44 163.77 71.8 163.64 72.16 163.53 72.53 163.42 72.93 163.33 73.32 163.26 73.92 163.3 74.58 163.39 75.25 163.57 75.89 163.84 76.45 164.19 76.9 164.64 77.2 165.19 77.31 165.19 77.31 165.19 77.31"/><polygon class="cls-4" points="81.41 77.58 80.86 80.61 77.42 80.61 77.52 80.05 77.59 79.55 77.64 79.16 77.7 78.96 77.51 79.18 77.29 79.4 77.03 79.6 76.74 79.79 76.42 79.98 76.07 80.14 75.72 80.31 75.35 80.44 74.95 80.57 74.56 80.67 74.17 80.75 73.75 80.8 73.36 80.83 72.97 80.84 72.58 80.8 72.21 80.75 71.73 80.62 71.3 80.49 70.92 80.31 70.57 80.1 70.28 79.89 70 79.64 69.78 79.38 69.59 79.11 69.43 78.82 69.29 78.52 69.18 78.22 69.1 77.92 69.05 77.61 69 77.29 68.98 76.99 68.98 76.69 69.02 76.16 69.1 75.66 69.24 75.18 69.42 74.72 69.63 74.28 69.88 73.88 70.17 73.5 70.49 73.16 70.83 72.85 71.22 72.56 71.61 72.3 72.02 72.08 72.46 71.89 72.91 71.74 73.37 71.62 73.85 71.54 73.88 71.54 73.94 71.52 74.04 71.51 74.19 71.5 74.36 71.47 74.54 71.45 74.75 71.43 74.98 71.4 75.22 71.37 75.45 71.35 75.69 71.33 75.91 71.3 76.13 71.29 76.33 71.28 76.52 71.26 76.67 71.26 76.99 71.26 77.32 71.28 77.62 71.29 77.91 71.29 78.16 71.3 78.35 71.32 78.49 71.33 78.53 71.33 78.56 71.24 78.64 70.99 78.71 70.7 78.73 70.44 78.68 70.15 78.56 69.87 78.39 69.63 78.17 69.42 77.91 69.25 77.63 69.12 77.3 69.04 76.94 69.01 76.56 69 76.15 68.99 75.73 68.99 75.3 69 74.85 69.03 74.41 69.07 73.97 69.11 73.55 69.16 73.14 69.22 72.74 69.28 72.39 69.35 72.06 69.42 71.76 69.5 71.52 69.58 71.33 69.68 71.17 69.76 72.14 66.47 72.44 66.35 72.74 66.24 73.07 66.15 73.4 66.08 73.73 66.01 74.08 65.96 74.44 65.9 74.8 65.87 75.19 65.85 75.58 65.83 75.99 65.82 76.42 65.82 76.85 65.82 77.3 65.82 77.78 65.83 78.25 65.85 78.64 65.87 79.05 65.94 79.47 66.04 79.91 66.16 80.33 66.33 80.74 66.52 81.15 66.75 81.53 67.01 81.87 67.31 82.17 67.64 82.45 68 82.65 68.41 82.79 68.85 82.87 69.31 82.87 69.83 82.79 70.38 81.41 77.58 81.41 77.58 81.41 77.58"/><polyline class="cls-5" points="81.41 77.58 80.86 80.61 77.42 80.61 77.42 80.61 77.52 80.05 77.59 79.55 77.64 79.16 77.7 78.96 77.7 78.96 77.51 79.18 77.29 79.4 77.03 79.6 76.74 79.79 76.42 79.98 76.07 80.14 75.72 80.31 75.35 80.44 74.95 80.57 74.56 80.67 74.17 80.75 73.75 80.8 73.36 80.83 72.97 80.84 72.58 80.8 72.21 80.75 72.21 80.75 71.73 80.62 71.3 80.49 70.92 80.31 70.57 80.1 70.28 79.89 70 79.64 69.78 79.38 69.59 79.11 69.43 78.82 69.29 78.52 69.18 78.22 69.1 77.92 69.05 77.61 69 77.29 68.98 76.99 68.98 76.69 68.98 76.69 69.02 76.16 69.1 75.66 69.24 75.18 69.42 74.72 69.63 74.28 69.88 73.88 70.17 73.5 70.49 73.16 70.83 72.85 71.22 72.56 71.61 72.3 72.02 72.08 72.46 71.89 72.91 71.74 73.37 71.62 73.85 71.54 73.85 71.54 73.88 71.54 73.94 71.52 74.04 71.51 74.19 71.5 74.36 71.47 74.54 71.45 74.75 71.43 74.98 71.4 75.22 71.37 75.45 71.35 75.69 71.33 75.91 71.3 76.13 71.29 76.33 71.28 76.52 71.26 76.67 71.26 76.67 71.26 76.99 71.26 77.32 71.28 77.62 71.29 77.91 71.29 78.16 71.3 78.35 71.32 78.49 71.33 78.53 71.33 78.53 71.33 78.56 71.24 78.64 70.99 78.71 70.7 78.73 70.44 78.73 70.44 78.68 70.15 78.56 69.87 78.39 69.63 78.17 69.42 77.91 69.25 77.63 69.12 77.3 69.04 76.94 69.01 76.94 69.01 76.56 69 76.15 68.99 75.73 68.99 75.3 69 74.85 69.03 74.41 69.07 73.97 69.11 73.55 69.16 73.14 69.22 72.74 69.28 72.39 69.35 72.06 69.42 71.76 69.5 71.52 69.58 71.33 69.68 71.17 69.76 72.14 66.47 72.14 66.47 72.44 66.35 72.74 66.24 73.07 66.15 73.4 66.08 73.73 66.01 74.08 65.96 74.44 65.9 74.8 65.87 75.19 65.85 75.58 65.83 75.99 65.82 76.42 65.82 76.85 65.82 77.3 65.82 77.78 65.83 78.25 65.85 78.25 65.85 78.64 65.87 79.05 65.94 79.47 66.04 79.91 66.16 80.33 66.33 80.74 66.52 81.15 66.75 81.53 67.01 81.87 67.31 82.17 67.64 82.45 68 82.65 68.41 82.79 68.85 82.87 69.31 82.87 69.83 82.79 70.38 81.41 77.58"/><polygon class="cls-3" points="78.12 74.02 78.11 73.95 78.05 73.88 77.97 73.84 77.83 73.81 77.68 73.79 77.51 73.77 77.3 73.77 77.1 73.77 76.88 73.79 76.64 73.81 76.43 73.84 76.21 73.87 76 73.9 75.81 73.94 75.65 73.98 75.5 74.02 75.4 74.05 75.3 74.09 75.14 74.14 74.99 74.21 74.82 74.29 74.64 74.39 74.45 74.48 74.27 74.59 74.08 74.73 73.91 74.86 73.74 75.03 73.59 75.19 73.45 75.37 73.36 75.56 73.27 75.78 73.23 76 73.22 76.46 73.29 76.83 73.42 77.1 73.6 77.31 73.81 77.44 74.04 77.53 74.26 77.57 74.48 77.58 74.89 77.57 75.26 77.53 75.61 77.47 75.92 77.39 76.2 77.29 76.45 77.17 76.69 77.05 76.89 76.9 77.07 76.76 77.23 76.6 77.37 76.45 77.48 76.28 77.57 76.12 77.66 75.96 77.72 75.81 77.76 75.66 77.88 75.26 77.97 74.81 78.05 74.38 78.12 74.02 78.12 74.02 78.12 74.02"/><polygon class="cls-4" points="52.7 80.61 48.99 80.61 52.09 62.7 58.54 62.7 59.16 73.32 63.62 62.7 70.36 62.7 67.19 80.61 63.48 80.61 65.82 67.23 65.68 67.23 60.12 80.61 55.94 80.61 55.91 80.05 55.81 78.56 55.69 76.45 55.55 74.02 55.42 71.58 55.29 69.44 55.2 67.88 55.17 67.23 55.13 67.23 55.05 67.23 54.97 67.23 54.97 67.23 52.7 80.61 52.7 80.61 52.7 80.61"/><polyline class="cls-5" points="52.7 80.61 48.99 80.61 52.09 62.7 58.54 62.7 59.16 73.32 63.62 62.7 70.36 62.7 67.19 80.61 63.48 80.61 65.82 67.23 65.68 67.23 60.12 80.61 55.94 80.61 55.94 80.61 55.91 80.05 55.81 78.56 55.69 76.45 55.55 74.02 55.42 71.58 55.29 69.44 55.2 67.88 55.17 67.23 55.17 67.23 55.13 67.23 55.05 67.23 54.97 67.23 54.97 67.23 52.7 80.61"/><polygon class="cls-4" points="149.12 77.58 148.56 80.61 145.14 80.61 145.16 80.05 145.18 79.56 145.18 79.19 145.21 79.03 145.03 79.23 144.82 79.44 144.57 79.63 144.3 79.82 144.02 80 143.69 80.16 143.35 80.32 143.01 80.46 142.64 80.57 142.26 80.68 141.88 80.75 141.5 80.8 141.09 80.83 140.72 80.84 140.34 80.8 139.98 80.75 139.49 80.62 139.05 80.49 138.67 80.31 138.31 80.1 138.01 79.89 137.75 79.64 137.54 79.38 137.34 79.11 137.18 78.82 137.06 78.52 136.95 78.22 136.88 77.92 136.83 77.61 136.78 77.29 136.76 76.99 136.76 76.69 136.78 76.16 136.87 75.66 136.99 75.18 137.17 74.72 137.37 74.28 137.63 73.88 137.92 73.5 138.23 73.16 138.59 72.85 138.95 72.56 139.35 72.3 139.77 72.08 140.2 71.89 140.65 71.74 141.09 71.62 141.56 71.54 141.59 71.54 141.66 71.52 141.75 71.51 141.89 71.5 142.06 71.47 142.26 71.45 142.46 71.43 142.68 71.4 142.91 71.37 143.16 71.35 143.39 71.33 143.62 71.3 143.84 71.29 144.03 71.28 144.22 71.26 144.37 71.26 144.7 71.26 145.03 71.28 145.34 71.29 145.64 71.29 145.9 71.3 146.12 71.32 146.24 71.33 146.3 71.33 146.32 71.24 146.37 70.99 146.4 70.7 146.43 70.44 146.38 70.15 146.27 69.87 146.09 69.63 145.88 69.42 145.64 69.25 145.35 69.12 145.05 69.04 144.72 69.01 144.34 69 143.94 68.99 143.51 68.99 143.07 69 142.62 69.03 142.19 69.07 141.75 69.11 141.33 69.16 140.92 69.22 140.52 69.28 140.17 69.35 139.84 69.42 139.54 69.5 139.29 69.58 139.1 69.68 138.95 69.76 139.91 66.47 140.21 66.35 140.52 66.24 140.84 66.15 141.17 66.08 141.51 66.01 141.85 65.96 142.2 65.9 142.57 65.87 142.95 65.85 143.35 65.83 143.74 65.82 144.16 65.82 144.59 65.82 145.03 65.82 145.49 65.83 145.95 65.85 146.34 65.87 146.75 65.94 147.17 66.04 147.61 66.16 148.03 66.33 148.45 66.52 148.86 66.75 149.24 67.01 149.58 67.31 149.9 67.64 150.17 68 150.37 68.41 150.53 68.85 150.62 69.31 150.62 69.83 150.55 70.38 149.12 77.58 149.12 77.58 149.12 77.58"/><polygon class="cls-4" points="148.56 80.7 148.64 80.62 149.2 77.59 149.04 77.57 148.48 80.6 148.56 80.51 148.56 80.7 148.63 80.69 148.64 80.62 148.56 80.7 148.56 80.7 148.56 80.7"/><polygon class="cls-4" points="145.05 80.61 145.14 80.7 148.56 80.7 148.56 80.51 145.14 80.51 145.22 80.61 145.05 80.61 145.04 80.7 145.14 80.7 145.05 80.61 145.05 80.61 145.05 80.61"/><polygon class="cls-4" points="145.27 79.08 145.15 78.97 145.09 79.19 145.08 79.56 145.08 80.05 145.05 80.61 145.22 80.61 145.25 80.05 145.27 79.56 145.25 79.19 145.25 79.08 145.14 78.97 145.27 79.08 145.27 79.08 145.27 79.08"/><polygon class="cls-4" points="139.97 80.83 139.97 80.83 140.34 80.88 140.72 80.92 141.09 80.91 141.5 80.88 141.89 80.83 142.27 80.76 142.65 80.65 143.03 80.54 143.37 80.4 143.73 80.24 144.06 80.08 144.34 79.89 144.63 79.69 144.88 79.51 145.09 79.28 145.27 79.08 145.14 78.97 144.96 79.18 144.77 79.37 144.52 79.56 144.26 79.75 143.97 79.91 143.65 80.08 143.32 80.24 142.98 80.38 142.62 80.49 142.24 80.6 141.86 80.67 141.5 80.72 141.09 80.75 140.72 80.76 140.34 80.72 139.99 80.67 139.99 80.67 139.97 80.83 139.97 80.83 139.97 80.83"/><polygon class="cls-4" points="136.66 76.69 136.66 76.69 136.68 76.99 136.7 77.29 136.74 77.62 136.8 77.94 136.87 78.24 136.98 78.55 137.1 78.86 137.28 79.15 137.47 79.44 137.69 79.69 137.96 79.95 138.27 80.17 138.63 80.39 139.02 80.57 139.47 80.7 139.97 80.83 139.99 80.67 139.5 80.54 139.08 80.4 138.71 80.23 138.35 80.04 138.07 79.82 137.82 79.58 137.6 79.33 137.41 79.07 137.27 78.78 137.14 78.5 137.03 78.21 136.96 77.91 136.91 77.59 136.87 77.29 136.84 76.99 136.85 76.69 136.85 76.69 136.66 76.69 136.66 76.69 136.66 76.69"/><polygon class="cls-4" points="141.56 71.45 141.56 71.45 141.09 71.54 140.62 71.66 140.17 71.81 139.73 72 139.31 72.22 138.9 72.49 138.53 72.78 138.18 73.11 137.85 73.45 137.56 73.83 137.29 74.24 137.09 74.69 136.91 75.15 136.78 75.64 136.7 76.16 136.66 76.69 136.85 76.69 136.87 76.16 136.95 75.67 137.07 75.21 137.25 74.74 137.46 74.32 137.7 73.94 137.99 73.56 138.29 73.22 138.64 72.92 139.01 72.63 139.39 72.38 139.81 72.16 140.22 71.97 140.67 71.82 141.11 71.7 141.56 71.62 141.56 71.62 141.56 71.45 141.56 71.45 141.56 71.45"/><polygon class="cls-4" points="144.37 71.17 144.37 71.17 144.22 71.17 144.03 71.2 143.84 71.21 143.62 71.22 143.39 71.25 143.16 71.26 142.91 71.29 142.68 71.32 142.46 71.35 142.26 71.37 142.06 71.39 141.89 71.42 141.75 71.43 141.64 71.44 141.59 71.45 141.56 71.45 141.56 71.62 141.59 71.62 141.67 71.6 141.75 71.59 141.89 71.58 142.06 71.55 142.26 71.54 142.46 71.51 142.68 71.48 142.91 71.45 143.16 71.43 143.39 71.42 143.62 71.39 143.84 71.37 144.03 71.36 144.22 71.36 144.37 71.36 144.37 71.36 144.37 71.17 144.37 71.17 144.37 71.17"/><polygon class="cls-4" points="146.21 71.32 146.3 71.25 146.24 71.25 146.12 71.24 145.9 71.22 145.64 71.2 145.34 71.2 145.03 71.2 144.7 71.17 144.37 71.17 144.37 71.36 144.7 71.36 145.03 71.36 145.34 71.39 145.64 71.39 145.9 71.39 146.12 71.4 146.24 71.42 146.3 71.42 146.38 71.35 146.3 71.42 146.37 71.43 146.38 71.35 146.21 71.32 146.21 71.32 146.21 71.32"/><polygon class="cls-4" points="146.35 70.44 146.34 70.44 146.32 70.7 146.28 70.98 146.24 71.22 146.21 71.32 146.38 71.35 146.4 71.25 146.44 71 146.49 70.7 146.53 70.44 146.51 70.44 146.35 70.44 146.35 70.44 146.35 70.44"/><polygon class="cls-4" points="144.72 69.09 144.72 69.11 145.04 69.12 145.33 69.2 145.6 69.33 145.83 69.49 146.02 69.68 146.19 69.91 146.3 70.16 146.35 70.44 146.51 70.44 146.46 70.13 146.35 69.83 146.16 69.57 145.94 69.35 145.68 69.16 145.38 69.04 145.07 68.96 144.72 68.92 144.72 68.93 144.72 69.09 144.72 69.09 144.72 69.09"/><polygon class="cls-4" points="138.87 69.75 139.01 69.83 139.15 69.76 139.32 69.67 139.55 69.58 139.86 69.5 140.18 69.44 140.54 69.37 140.93 69.3 141.33 69.25 141.75 69.19 142.19 69.15 142.62 69.11 143.07 69.08 143.51 69.08 143.94 69.08 144.34 69.08 144.72 69.09 144.72 68.93 144.34 68.92 143.94 68.89 143.51 68.89 143.07 68.92 142.62 68.94 142.19 68.99 141.75 69.03 141.33 69.08 140.91 69.13 140.51 69.2 140.16 69.27 139.83 69.34 139.53 69.42 139.27 69.5 139.06 69.6 138.9 69.69 139.04 69.78 138.87 69.75 138.87 69.75 138.87 69.75"/><polygon class="cls-4" points="139.88 66.39 139.83 66.46 138.87 69.75 139.04 69.78 139.99 66.49 139.94 66.56 139.88 66.39 139.84 66.41 139.83 66.46 139.88 66.39 139.88 66.39 139.88 66.39"/><polygon class="cls-4" points="145.95 65.77 145.95 65.77 145.49 65.74 145.03 65.72 144.59 65.72 144.16 65.72 143.74 65.72 143.35 65.75 142.95 65.77 142.57 65.8 142.2 65.82 141.83 65.87 141.5 65.93 141.15 66 140.82 66.07 140.5 66.16 140.18 66.27 139.88 66.39 139.94 66.56 140.24 66.43 140.55 66.33 140.85 66.23 141.18 66.16 141.52 66.09 141.86 66.04 142.2 65.98 142.57 65.96 142.95 65.93 143.35 65.92 143.74 65.92 144.16 65.92 144.59 65.92 145.03 65.92 145.49 65.93 145.95 65.93 145.95 65.93 145.95 65.77 145.95 65.77 145.95 65.77"/><polygon class="cls-4" points="150.63 70.39 150.63 70.39 150.7 69.83 150.7 69.31 150.61 68.83 150.46 68.39 150.24 67.96 149.97 67.58 149.64 67.24 149.3 66.94 148.9 66.68 148.49 66.43 148.06 66.24 147.63 66.08 147.18 65.96 146.76 65.86 146.34 65.8 145.95 65.77 145.95 65.93 146.34 65.96 146.73 66.03 147.16 66.12 147.58 66.24 148 66.41 148.41 66.6 148.82 66.82 149.19 67.08 149.53 67.37 149.83 67.69 150.1 68.04 150.29 68.44 150.44 68.86 150.54 69.31 150.54 69.83 150.47 70.36 150.47 70.36 150.63 70.39 150.63 70.39 150.63 70.39"/><polygon class="cls-4" points="149.2 77.59 149.2 77.59 150.63 70.39 150.47 70.36 149.04 77.57 149.04 77.57 149.2 77.59 149.2 77.59 149.2 77.59"/><polygon class="cls-2" points="145.82 74.02 145.79 73.94 145.74 73.87 145.64 73.83 145.5 73.79 145.35 73.77 145.18 73.76 144.97 73.76 144.77 73.77 144.55 73.8 144.33 73.83 144.11 73.86 143.91 73.88 143.7 73.92 143.53 73.95 143.35 73.99 143.21 74.02 143.12 74.03 143.01 74.07 142.87 74.11 142.72 74.17 142.54 74.25 142.38 74.33 142.19 74.43 142.01 74.55 141.83 74.67 141.66 74.82 141.51 74.97 141.35 75.15 141.24 75.34 141.14 75.55 141.06 75.77 141.01 76 141 76.46 141.07 76.83 141.18 77.1 141.34 77.31 141.54 77.44 141.78 77.53 142.01 77.57 142.24 77.58 142.65 77.57 143.03 77.53 143.39 77.46 143.7 77.36 144 77.25 144.26 77.13 144.51 76.99 144.72 76.83 144.92 76.68 145.08 76.5 145.23 76.34 145.35 76.16 145.45 76 145.51 75.83 145.57 75.67 145.61 75.52 145.67 75.14 145.74 74.74 145.79 74.36 145.82 74.02 145.82 74.02 145.82 74.02"/><polygon class="cls-4" points="173.92 78.74 173.95 78.43 174.06 78.06 174.25 77.73 174.48 77.44 174.77 77.21 175.09 77.05 175.45 76.94 175.83 76.9 176.22 76.94 176.57 77.05 176.9 77.21 177.18 77.44 177.41 77.73 177.6 78.06 177.72 78.43 177.75 78.74 177.33 78.74 177.32 78.5 177.24 78.19 177.1 77.92 176.92 77.69 176.71 77.5 176.45 77.36 176.15 77.27 175.83 77.24 175.52 77.27 175.22 77.36 174.96 77.5 174.74 77.69 174.56 77.92 174.43 78.19 174.35 78.5 174.32 78.74 173.92 78.74 173.92 78.74 173.92 78.74"/><polygon class="cls-4" points="175.15 78.74 175.15 77.92 175.9 77.92 176.07 77.94 176.22 77.96 176.32 78 176.42 78.06 176.49 78.14 176.54 78.22 176.57 78.32 176.58 78.41 176.57 78.53 176.54 78.63 176.5 78.71 176.47 78.74 175.9 78.74 175.95 78.73 176.05 78.71 176.13 78.69 176.2 78.66 176.26 78.62 176.28 78.58 176.31 78.51 176.31 78.41 176.29 78.34 176.27 78.29 176.22 78.26 176.19 78.24 176.12 78.22 176.05 78.21 175.98 78.21 175.9 78.21 175.49 78.21 175.49 78.74 175.15 78.74 175.15 78.74 175.15 78.74"/><polygon class="cls-4" points="173.92 78.74 173.91 78.82 173.95 79.22 174.06 79.58 174.25 79.91 174.48 80.19 174.77 80.42 175.09 80.6 175.45 80.7 175.83 80.75 176.22 80.7 176.57 80.6 176.9 80.42 177.18 80.19 177.41 79.91 177.6 79.58 177.72 79.22 177.76 78.82 177.75 78.74 177.33 78.74 177.35 78.82 177.32 79.15 177.24 79.45 177.1 79.71 176.92 79.94 176.71 80.13 176.45 80.28 176.15 80.38 175.83 80.4 175.52 80.38 175.22 80.28 174.96 80.13 174.74 79.94 174.56 79.71 174.43 79.45 174.35 79.15 174.32 78.82 174.32 78.74 173.92 78.74 173.92 78.74 173.92 78.74"/><polygon class="cls-4" points="175.15 78.74 175.15 79.57 175.49 79.57 175.49 78.89 175.83 78.89 176.24 79.57 176.51 79.57 176.1 78.89 176.2 78.89 176.29 78.86 176.38 78.83 176.45 78.78 176.47 78.74 175.9 78.74 175.83 78.75 175.49 78.75 175.49 78.74 175.15 78.74 175.15 78.74 175.15 78.74"/><path class="cls-5" d="M173.91,78.82h0l0-.39.11-.37.19-.33.23-.29.29-.23.32-.16.36-.11.38,0h0l.39,0,.35.11.33.16.28.23.23.29.19.33.12.37,0,.39h0l0,.4-.12.37-.19.32-.23.28-.28.23-.33.18-.35.11-.39,0h0l-.38,0-.36-.11-.32-.18-.29-.23-.23-.28-.19-.32-.11-.37,0-.4m1.58.75h-.34V77.92h.75l.17,0,.15,0,.1,0,.1.06.07.08,0,.08,0,.1v.09h0v.12l0,.1,0,.08-.05.07-.07.06-.09,0-.09,0h-.09l.4.68h-.27l-.41-.68h-.34v.68m.34-.82h0l.12,0,.1,0,.08,0,.07,0,.06,0,0,0,0-.07v-.1h0l0-.07,0,0-.05,0,0,0-.07,0h-.63v.54h.34m0,1.65h0l.32,0,.3-.1.26-.15.21-.19.18-.23.14-.26.08-.3,0-.33h0l0-.33-.08-.3-.14-.27-.18-.23-.21-.19-.26-.14-.3-.09-.32,0h0l-.31,0-.3.09-.26.14-.22.19-.18.23-.13.27-.08.3,0,.33h0l0,.33.08.3.13.26.18.23.22.19.26.15.3.1.31,0"/><polygon class="cls-4" points="150.14 80.61 153.99 80.61 153.99 80.61 155.37 72.85 155.42 72.55 155.5 72.25 155.59 71.95 155.7 71.65 155.83 71.35 155.99 71.06 156.17 70.79 156.39 70.53 156.64 70.3 156.91 70.08 157.22 69.87 157.58 69.71 157.97 69.57 158.41 69.46 158.89 69.38 159.42 69.35 159.61 69.35 159.72 69.35 159.76 69.35 159.76 69.35 160.38 65.85 159.99 65.87 159.62 65.92 159.28 65.98 158.96 66.08 158.66 66.19 158.37 66.33 158.1 66.47 157.84 66.64 157.59 66.83 157.36 67.02 157.14 67.24 156.92 67.46 156.72 67.69 156.52 67.95 156.31 68.19 156.12 68.47 156.53 66 152.69 66 150.14 80.61 150.14 80.61 150.14 80.61 150.14 80.61"/><polyline class="cls-5" points="150.14 80.61 153.99 80.61 153.99 80.61 155.37 72.85 155.37 72.85 155.42 72.55 155.5 72.25 155.59 71.95 155.7 71.65 155.83 71.35 155.99 71.06 156.17 70.79 156.39 70.53 156.64 70.3 156.91 70.08 157.22 69.87 157.58 69.71 157.97 69.57 158.41 69.46 158.89 69.38 159.42 69.35 159.42 69.35 159.61 69.35 159.72 69.35 159.76 69.35 159.76 69.35 160.38 65.85 160.38 65.85 159.99 65.87 159.62 65.92 159.28 65.98 158.96 66.08 158.66 66.19 158.37 66.33 158.1 66.47 157.84 66.64 157.59 66.83 157.36 67.02 157.14 67.24 156.92 67.46 156.72 67.69 156.52 67.95 156.31 68.19 156.12 68.47 156.53 66 152.69 66 150.14 80.61 150.14 80.61"/><polygon class="cls-4" points="114.02 80.61 117.86 80.61 117.93 80.61 119.24 72.85 119.3 72.55 119.36 72.26 119.43 71.97 119.53 71.7 119.64 71.43 119.77 71.17 119.94 70.92 120.13 70.69 120.34 70.48 120.59 70.28 120.89 70.12 121.22 69.97 121.6 69.84 122.02 69.74 122.49 69.67 123.02 69.63 123.06 69.63 123.11 69.64 123.18 69.65 123.25 69.65 123.32 69.67 123.38 69.68 123.41 69.69 123.43 69.69 123.44 69.64 123.48 69.48 123.54 69.23 123.61 68.93 123.7 68.58 123.8 68.19 123.92 67.81 124.04 67.43 124.15 67.17 124.29 66.91 124.42 66.65 124.56 66.42 124.68 66.22 124.78 66.05 124.85 65.96 124.87 65.92 124.86 65.92 124.81 65.9 124.74 65.89 124.64 65.87 124.55 65.87 124.44 65.86 124.34 65.85 124.25 65.85 123.82 65.87 123.44 65.92 123.09 65.98 122.76 66.07 122.44 66.17 122.16 66.31 121.9 66.45 121.66 66.61 121.42 66.79 121.2 66.99 121 67.2 120.8 67.43 120.59 67.66 120.4 67.92 120.19 68.19 119.99 68.47 120.48 66 116.57 66 114.02 80.61 114.02 80.61 114.02 80.61 114.02 80.61"/><polyline class="cls-5" points="114.02 80.61 117.86 80.61 117.93 80.61 119.24 72.85 119.24 72.85 119.3 72.55 119.36 72.26 119.43 71.97 119.53 71.7 119.64 71.43 119.77 71.17 119.94 70.92 120.13 70.69 120.34 70.48 120.59 70.28 120.89 70.12 121.22 69.97 121.6 69.84 122.02 69.74 122.49 69.67 123.02 69.63 123.02 69.63 123.06 69.63 123.11 69.64 123.18 69.65 123.25 69.65 123.32 69.67 123.38 69.68 123.41 69.69 123.43 69.69 123.43 69.69 123.44 69.64 123.48 69.48 123.54 69.23 123.61 68.93 123.7 68.58 123.8 68.19 123.92 67.81 124.04 67.43 124.04 67.43 124.15 67.17 124.29 66.91 124.42 66.65 124.56 66.42 124.68 66.22 124.78 66.05 124.85 65.96 124.87 65.92 124.87 65.92 124.86 65.92 124.81 65.9 124.74 65.89 124.64 65.87 124.55 65.87 124.44 65.86 124.34 65.85 124.25 65.85 124.25 65.85 123.82 65.87 123.44 65.92 123.09 65.98 122.76 66.07 122.44 66.17 122.16 66.31 121.9 66.45 121.66 66.61 121.42 66.79 121.2 66.99 121 67.2 120.8 67.43 120.59 67.66 120.4 67.92 120.19 68.19 119.99 68.47 120.48 66 116.57 66 114.02 80.61 114.02 80.61"/><polygon class="cls-2" points="173.95 94.96 173.95 94.91 174.06 94.55 174.25 94.24 174.48 93.97 174.77 93.75 175.09 93.58 175.45 93.49 175.83 93.45 176.22 93.49 176.57 93.58 176.9 93.75 177.18 93.97 177.41 94.24 177.6 94.55 177.72 94.91 177.72 94.96 177.32 94.96 177.24 94.68 177.1 94.42 176.92 94.18 176.71 93.99 176.45 93.84 176.15 93.75 175.83 93.72 175.52 93.75 175.22 93.84 174.96 93.99 174.74 94.18 174.56 94.42 174.43 94.68 174.35 94.96 173.95 94.96 173.95 94.96 173.95 94.96"/><polygon class="cls-2" points="175.15 94.96 175.15 94.49 175.9 94.49 176.07 94.49 176.22 94.51 176.32 94.54 176.42 94.59 176.49 94.66 176.54 94.74 176.57 94.84 176.58 94.96 176.31 94.96 176.31 94.89 176.29 94.83 176.27 94.77 176.22 94.74 176.19 94.72 176.12 94.7 176.05 94.69 175.98 94.69 175.9 94.69 175.49 94.69 175.49 94.96 175.15 94.96 175.15 94.96 175.15 94.96"/><polygon class="cls-2" points="173.91 95.26 173.95 94.96 174.35 94.96 174.35 94.97 174.32 95.26 173.91 95.26 173.91 95.26 173.91 95.26"/><polygon class="cls-2" points="175.15 95.26 175.15 94.96 175.49 94.96 175.49 95.23 175.83 95.23 175.95 95.21 176.05 95.19 176.13 95.17 176.2 95.14 176.26 95.1 176.28 95.06 176.31 94.99 176.31 94.96 176.58 94.96 176.58 94.96 176.57 95.06 176.54 95.14 176.5 95.21 176.45 95.26 175.15 95.26 175.15 95.26 175.15 95.26"/><polygon class="cls-2" points="177.35 95.26 177.32 94.97 177.32 94.96 177.72 94.96 177.76 95.26 177.35 95.26 177.35 95.26 177.35 95.26"/><polygon class="cls-2" points="173.91 95.26 173.91 95.3 173.95 95.7 174.06 96.07 174.25 96.39 174.48 96.68 174.77 96.91 175.09 97.08 175.45 97.19 175.83 97.23 176.22 97.19 176.57 97.08 176.9 96.91 177.18 96.68 177.41 96.39 177.6 96.07 177.72 95.7 177.76 95.3 177.76 95.26 177.35 95.26 177.35 95.3 177.32 95.63 177.24 95.93 177.1 96.19 176.92 96.42 176.71 96.61 176.45 96.76 176.15 96.86 175.83 96.89 175.52 96.86 175.22 96.76 174.96 96.61 174.74 96.42 174.56 96.19 174.43 95.93 174.35 95.63 174.32 95.3 174.32 95.26 173.91 95.26 173.91 95.26 173.91 95.26"/><polygon class="cls-2" points="175.15 95.26 175.15 96.05 175.49 96.05 175.49 95.37 175.83 95.37 176.24 96.05 176.51 96.05 176.1 95.37 176.2 95.37 176.29 95.34 176.38 95.32 176.45 95.26 176.45 95.26 175.15 95.26 175.15 95.26 175.15 95.26"/><path class="cls-4" d="M114.44,70.35l-.11-.82-.19-.72-.28-.63-.34-.54-.41-.47-.45-.38-.49-.33-.53-.24L111.1,66l-.57-.14-.55-.09-.56-.06h-.53l-1.11.06-1,.16-.89.24-.79.35-.68.41-.6.46-.53.52-.44.54-.38.58-.32.6-.24.58-.21.59-.15.57-.11.53-.08.51,0,.44L101.26,74l0,1,.15.92.23.8.33.73.39.62.47.56.53.47.57.39.62.34.64.26.67.21.68.16.68.1.68.07h1.91l.36,0,.31,0,.29,0,.27,0,.25,0,.23,0,.22-.06.22-.06.2-.07.2-.09.22-.08.22-.11.22-.1.55-3.36-.4.23-.38.22-.4.16-.38.15-.37.13-.38.08-.37.07-.37,0-.36,0h-1.08l-.36,0-.35,0-.34,0-.36-.06-.27,0-.27-.1-.28-.12-.24-.15-.25-.16-.22-.2-.2-.21-.19-.23-.17-.24-.14-.25-.11-.25-.1-.26-.06-.26,0-.26v-.23l0-.18h8.85l.07-.83.21-1.15.09-1Zm-3.7,1.25h-5l0-.19,0-.29.08-.27.1-.27.12-.25.13-.23.15-.22.16-.2.18-.19.17-.17.21-.15.2-.12.24-.11.23-.08.23-.06.24,0h.27l.24,0,.23,0,.22,0,.22.08.2.11.21.13.18.13.16.17.13.19.14.2.1.23.09.26.06.28,0,.3,0,.32Z"/></g></g></svg>