<svg xmlns="http://www.w3.org/2000/svg" viewBox="0 0 225.44 140.9"><defs><style>.cls-1{fill:#3957a7;}.cls-2{fill:#fff;}.cls-3{fill:#f9a533;}</style></defs><g id="Layer_2" data-name="Layer 2"><g id="Capa_1" data-name="Capa 1"><path class="cls-1" d="M225.44,133.39a7.51,7.51,0,0,1-7.51,7.51H7.51A7.51,7.51,0,0,1,0,133.39V7.52A7.51,7.51,0,0,1,7.51,0H217.93a7.52,7.52,0,0,1,7.51,7.52Z"/><polygon class="cls-2" points="103.74 91.61 92.73 91.61 99.62 49.31 110.63 49.31 103.74 91.61"/><path class="cls-2" d="M83.47,49.31,73,78.41l-1.24-6.27h0L68,53.12s-.45-3.81-5.22-3.81H45.44l-.2.72a41,41,0,0,1,11.52,4.84l9.56,36.74H77.8l17.52-42.3Z"/><path class="cls-2" d="M170.09,91.61H180.2l-8.81-42.3h-8.86a5.05,5.05,0,0,0-5.08,3.16L141,91.61H152.5l2.3-6.28h14ZM158,76.65l5.79-15.83L167,76.65Z"/><path class="cls-2" d="M141.89,59.49l1.56-9.09a31.76,31.76,0,0,0-9.9-1.84c-5.46,0-18.44,2.39-18.44,14,0,10.93,15.23,11.07,15.23,16.8s-13.66,4.72-18.17,1.1L110.53,90A30.86,30.86,0,0,0,123,92.34c7.52,0,18.86-3.89,18.86-14.48,0-11-15.37-12-15.37-16.8S137.17,56.89,141.89,59.49Z"/><path class="cls-3" d="M71.73,72.15,68,53.12s-.45-3.81-5.22-3.81H45.44l-.2.72a42.65,42.65,0,0,1,16.34,8.21A33,33,0,0,1,71.73,72.15Z"/></g></g></svg>